<?xml version="1.0" encoding="UTF-8" standalone="no"?>
<svg
   version="1.1"
   width="28.438906mm"
   height="31.296049mm"
   viewBox="0 0 28.438906 31.296049"
   id="svg610"
   xmlns="http://www.w3.org/2000/svg"
   xmlns:svg="http://www.w3.org/2000/svg">
  
  <title
     id="title1">LMx35</title>
  
  <g
     style="fill:#000000;fill-opacity:1;stroke:#000000;stroke-linecap:round;stroke-linejoin:round;stroke-opacity:1"
     id="g1"
     transform="translate(-75.501292,-79.2433)" />
  <g
     style="fill:none;stroke:#840000;stroke-width:0.254;stroke-linecap:round;stroke-linejoin:round;stroke-opacity:1"
     id="g2"
     transform="translate(-75.501292,-79.2433)">
    <rect
       x="76.454002"
       y="86.360001"
       width="2.0320001"
       height="5.0799999"
       rx="0.000000"
       id="rect1" />
  </g>
  <g
     style="fill:none;stroke:#840000;stroke-width:0.1524;stroke-linecap:round;stroke-linejoin:round;stroke-opacity:1"
     id="g3"
     transform="translate(-75.501292,-79.2433)">
    <path
       d="M 77.47,86.36 V 85.09"
       id="path2" />
    <path
       d="m 77.47,91.44 v 1.27"
       id="path3" />
  </g>
  <g
     style="fill:none;stroke:#006464;stroke-width:0.1524;stroke-linecap:round;stroke-linejoin:round;stroke-opacity:1"
     id="g22"
     transform="translate(-75.501292,-79.2433)">
    <path
       d="m 80.666804,89.535004 h -0.252918 l -0.49009,-0.48947 h -0.274568 v 0.48947 h -0.194855 v -1.231116 h 0.410376 q 0.132856,0 0.221426,0.01488 0.08857,0.01406 0.159427,0.05126 0.07971,0.04217 0.123999,0.106658 0.04527,0.06366 0.04527,0.162054 0,0.133116 -0.07971,0.223238 -0.07971,0.0893 -0.219458,0.13477 z m -0.455646,-0.884683 q 0,-0.05292 -0.02263,-0.09343 -0.02165,-0.04134 -0.07282,-0.06945 -0.04232,-0.02398 -0.10038,-0.03307 -0.05806,-0.0099 -0.136792,-0.0099 h -0.229299 v 0.464665 h 0.196823 q 0.09251,0 0.161395,-0.01323 0.06889,-0.01406 0.11711,-0.05126 0.04429,-0.03473 0.06495,-0.07937 0.02165,-0.04547 0.02165,-0.114926 z m 1.514555,0.884683 h -0.793198 v -0.125675 h 0.305076 V 88.584176 H 80.932515 V 88.47173 q 0.062,0 0.132856,-0.0083 0.07086,-0.0091 0.107268,-0.02563 0.04527,-0.02067 0.07086,-0.05209 0.02657,-0.03224 0.03051,-0.08599 h 0.152538 v 1.109575 h 0.299172 z"
       id="text3"
       style="font-size:1.6933px;text-anchor:middle;opacity:0;stroke-opacity:0"
       aria-label="R1" />
    <g
       class="stroked-text"
       id="g19">
      
      <path
         d="M 80.3872,89.4795 79.9639,88.8748"
         id="path4" />
      <path
         d="m 79.6615,89.4795 v -1.27"
         id="path5" />
      <path
         d="m 79.6615,88.2095 h 0.4838"
         id="path6" />
      <path
         d="m 80.1453,88.2095 0.121,0.0605"
         id="path7" />
      <path
         d="m 80.2663,88.27 0.0605,0.0605"
         id="path8" />
      <path
         d="m 80.3268,88.3305 0.0604,0.1209"
         id="path9" />
      <path
         d="m 80.3872,88.4514 v 0.1815"
         id="path10" />
      <path
         d="m 80.3872,88.6329 -0.0604,0.1209"
         id="path11" />
      <path
         d="m 80.3268,88.7538 -0.0605,0.0605"
         id="path12" />
      <path
         d="m 80.2663,88.8143 -0.121,0.0605"
         id="path13" />
      <path
         d="M 80.1453,88.8748 H 79.6615"
         id="path14" />
      <path
         d="M 81.5968,89.4795 H 80.8711"
         id="path15" />
      <path
         d="m 81.2339,89.4795 v -1.27"
         id="path16" />
      <path
         d="M 81.2339,88.2095 81.113,88.391"
         id="path17" />
      <path
         d="m 81.113,88.391 -0.121,0.1209"
         id="path18" />
      <path
         d="m 80.992,88.5119 -0.1209,0.0605"
         id="path19" />
    </g>
    <path
       style="fill:none;stroke:#840000;stroke-width:0.1524;stroke-linecap:round;stroke-linejoin:round;stroke-opacity:1"
       d="M 76.708,83.82 77.47,82.55"
       id="path20" />
    <path
       style="fill:none;stroke:#840000;stroke-width:0.1524;stroke-linecap:round;stroke-linejoin:round;stroke-opacity:1"
       d="m 77.47,82.55 0.762,1.27"
       id="path21" />
    <path
       style="fill:none;stroke:#840000;stroke-width:0.1524;stroke-linecap:round;stroke-linejoin:round;stroke-opacity:1"
       d="M 77.47,85.09 V 82.55"
       id="path22" />
  </g>
  <g
     style="fill:none;stroke:#840000;stroke-width:0.1524;stroke-linecap:round;stroke-linejoin:round;stroke-opacity:1"
     id="g23"
     transform="translate(-75.501292,-79.2433)">
    <path
       d="m 77.47,85.09 v 0"
       id="path23" />
  </g>
  <g
     style="fill:none;stroke:#006464;stroke-width:0.1524;stroke-linecap:round;stroke-linejoin:round;stroke-opacity:1"
     id="g58"
     transform="translate(-75.501292,-79.2433)">
    <path
       d="m 76.789992,79.413882 -0.48752,1.231115 h -0.237464 l -0.48752,-1.231115 h 0.19069 l 0.420059,1.083116 0.420059,-1.083116 z m 1.237689,1.14182 q -0.04947,0.01984 -0.08995,0.03721 -0.03958,0.01736 -0.10434,0.03638 -0.05487,0.01571 -0.119632,0.02646 -0.06386,0.01158 -0.141219,0.01158 -0.145716,0 -0.265347,-0.03721 -0.118732,-0.03803 -0.206882,-0.118233 -0.08635,-0.07855 -0.134922,-0.199261 -0.04857,-0.12154 -0.04857,-0.281941 0,-0.152132 0.04677,-0.272019 0.04677,-0.119887 0.134922,-0.202568 0.08545,-0.0802 0.205982,-0.122367 0.121431,-0.04217 0.268946,-0.04217 0.107938,0 0.214976,0.02398 0.107938,0.02398 0.239263,0.08433 v 0.1943 h -0.01349 q -0.110637,-0.08516 -0.219474,-0.124021 -0.108838,-0.03886 -0.232966,-0.03886 -0.101642,0 -0.183495,0.03059 -0.08095,0.02976 -0.144817,0.09343 -0.06206,0.06201 -0.09714,0.157093 -0.03418,0.09426 -0.03418,0.218277 0,0.129809 0.03778,0.223238 0.03868,0.09343 0.09894,0.152133 0.06296,0.06118 0.146616,0.09095 0.08455,0.02894 0.178098,0.02894 0.128626,0 0.241061,-0.04051 0.112436,-0.04051 0.210479,-0.121541 h 0.01259 z m 1.286261,0 q -0.04947,0.01984 -0.08995,0.03721 -0.03958,0.01736 -0.10434,0.03638 -0.05487,0.01571 -0.119631,0.02646 -0.06386,0.01158 -0.141219,0.01158 -0.145717,0 -0.265348,-0.03721 -0.118732,-0.03803 -0.206881,-0.118233 -0.08635,-0.07855 -0.134923,-0.199261 -0.04857,-0.12154 -0.04857,-0.281941 0,-0.152132 0.04677,-0.272019 0.04677,-0.119887 0.134923,-0.202568 0.08545,-0.0802 0.205982,-0.122367 0.12143,-0.04217 0.268945,-0.04217 0.107938,0 0.214977,0.02398 0.107938,0.02398 0.239262,0.08433 v 0.1943 h -0.01349 q -0.110636,-0.08516 -0.219474,-0.124021 -0.108837,-0.03886 -0.232966,-0.03886 -0.101642,0 -0.183495,0.03059 -0.08095,0.02976 -0.144817,0.09343 -0.06206,0.06201 -0.09714,0.157093 -0.03418,0.09426 -0.03418,0.218277 0,0.129809 0.03778,0.223238 0.03868,0.09343 0.09894,0.152133 0.06296,0.06118 0.146616,0.09095 0.08455,0.02894 0.178098,0.02894 0.128626,0 0.241062,-0.04051 0.112435,-0.04051 0.210479,-0.121541 h 0.01259 z"
       id="text23"
       style="font-size:1.6933px;text-anchor:middle;opacity:0;stroke-opacity:0"
       aria-label="VCC" />
    <g
       class="stroked-text"
       id="g55">
      
      <path
         d="m 75.7766,79.3195 0.4233,1.27"
         id="path24" />
      <path
         d="m 76.1999,80.5895 0.4234,-1.27"
         id="path25" />
      <path
         d="m 77.7723,80.4686 -0.0604,0.0605"
         id="path26" />
      <path
         d="m 77.7119,80.5291 -0.1815,0.0604"
         id="path27" />
      <path
         d="M 77.5304,80.5895 H 77.4095"
         id="path28" />
      <path
         d="M 77.4095,80.5895 77.2281,80.5291"
         id="path29" />
      <path
         d="m 77.2281,80.5291 -0.121,-0.121"
         id="path30" />
      <path
         d="m 77.1071,80.4081 -0.0605,-0.121"
         id="path31" />
      <path
         d="M 77.0466,80.2871 76.9862,80.0452"
         id="path32" />
      <path
         d="M 76.9862,80.0452 V 79.8638"
         id="path33" />
      <path
         d="m 76.9862,79.8638 0.0604,-0.2419"
         id="path34" />
      <path
         d="M 77.0466,79.6219 77.1071,79.501"
         id="path35" />
      <path
         d="m 77.1071,79.501 0.121,-0.121"
         id="path36" />
      <path
         d="m 77.2281,79.38 0.1814,-0.0605"
         id="path37" />
      <path
         d="m 77.4095,79.3195 h 0.1209"
         id="path38" />
      <path
         d="M 77.5304,79.3195 77.7119,79.38"
         id="path39" />
      <path
         d="m 77.7119,79.38 0.0604,0.0605"
         id="path40" />
      <path
         d="m 79.0423,80.4686 -0.0604,0.0605"
         id="path41" />
      <path
         d="m 78.9819,80.5291 -0.1815,0.0604"
         id="path42" />
      <path
         d="M 78.8004,80.5895 H 78.6795"
         id="path43" />
      <path
         d="M 78.6795,80.5895 78.4981,80.5291"
         id="path44" />
      <path
         d="m 78.4981,80.5291 -0.121,-0.121"
         id="path45" />
      <path
         d="m 78.3771,80.4081 -0.0605,-0.121"
         id="path46" />
      <path
         d="M 78.3166,80.2871 78.2562,80.0452"
         id="path47" />
      <path
         d="M 78.2562,80.0452 V 79.8638"
         id="path48" />
      <path
         d="m 78.2562,79.8638 0.0604,-0.2419"
         id="path49" />
      <path
         d="M 78.3166,79.6219 78.3771,79.501"
         id="path50" />
      <path
         d="m 78.3771,79.501 0.121,-0.121"
         id="path51" />
      <path
         d="m 78.4981,79.38 0.1814,-0.0605"
         id="path52" />
      <path
         d="m 78.6795,79.3195 h 0.1209"
         id="path53" />
      <path
         d="M 78.8004,79.3195 78.9819,79.38"
         id="path54" />
      <path
         d="m 78.9819,79.38 0.0604,0.0605"
         id="path55" />
    </g>
    <path
       style="fill:none;stroke:#840000;stroke-width:0.254;stroke-linecap:round;stroke-linejoin:round;stroke-opacity:1"
       d="m 88.9,100.33 h 2.54 v 0.508"
       id="path56" />
    <path
       style="fill:none;stroke:#840000;stroke-width:0.1524;stroke-linecap:round;stroke-linejoin:round;stroke-opacity:1"
       d="m 90.17,102.87 v -2.54"
       id="path57" />
    <path
       style="fill:none;stroke:#840000;stroke-width:0.254;stroke-linecap:round;stroke-linejoin:round;stroke-opacity:1"
       d="m 88.9,102.87 h 2.54 l -1.27,-2.54 z"
       id="path58" />
  </g>
  <g
     style="fill:none;stroke:#840000;stroke-width:0.1524;stroke-linecap:round;stroke-linejoin:round;stroke-opacity:1"
     id="g60"
     transform="translate(-75.501292,-79.2433)">
    <path
       d="M 90.17,100.33 V 97.79"
       id="path59" />
    <path
       d="m 90.17,102.87 v 2.54"
       id="path60" />
  </g>
  <g
     style="fill:none;stroke:#006464;stroke-width:0.1524;stroke-linecap:round;stroke-linejoin:round;stroke-opacity:1"
     id="g119"
     transform="translate(-75.501292,-79.2433)">
    <path
       d="m 94.077665,100.35058 q 0,0.16784 -0.0829,0.30426 -0.08197,0.13643 -0.218901,0.21167 -0.09501,0.0521 -0.21238,0.0752 -0.116437,0.0232 -0.307393,0.0232 h -0.350242 v -1.231118 h 0.346516 q 0.203065,0 0.322296,0.02646 0.120163,0.02563 0.203066,0.07111 0.141587,0.07855 0.220764,0.209188 0.07918,0.13063 0.07918,0.31005 z m -0.192819,-0.002 q 0,-0.14469 -0.05682,-0.24391 -0.05682,-0.0992 -0.169532,-0.156265 -0.08197,-0.04134 -0.174189,-0.05705 -0.09222,-0.01654 -0.220764,-0.01654 h -0.173258 v 0.950005 h 0.173258 q 0.133203,0 0.231942,-0.0174 0.09967,-0.0174 0.182572,-0.0645 0.103396,-0.0587 0.154628,-0.15462 0.05216,-0.0959 0.05216,-0.23977 z m 1.314336,0.6168 h -0.750783 v -0.12568 h 0.288763 v -0.82515 h -0.288763 v -0.112446 q 0.05868,0 0.125751,-0.0083 0.06707,-0.0091 0.101533,-0.02563 0.04285,-0.02067 0.06707,-0.05209 0.02515,-0.03225 0.02888,-0.08599 h 0.144381 v 1.109576 h 0.283174 z"
       id="text60"
       style="font-size:1.6933px;text-anchor:middle;opacity:0;stroke-opacity:0"
       aria-label="D1" />
    <g
       class="stroked-text"
       id="g77">
      
      <path
         d="m 93.1235,100.9094 v -1.27"
         id="path61" />
      <path
         d="m 93.1235,99.6394 h 0.3024"
         id="path62" />
      <path
         d="m 93.4259,99.6394 0.1814,0.0605"
         id="path63" />
      <path
         d="m 93.6073,99.6999 0.121,0.121"
         id="path64" />
      <path
         d="m 93.7283,99.8209 0.0605,0.1209"
         id="path65" />
      <path
         d="m 93.7888,99.9418 0.0604,0.2419"
         id="path66" />
      <path
         d="m 93.8492,100.1837 v 0.1814"
         id="path67" />
      <path
         d="m 93.8492,100.3651 -0.0604,0.2419"
         id="path68" />
      <path
         d="m 93.7888,100.607 -0.0605,0.121"
         id="path69" />
      <path
         d="m 93.7283,100.728 -0.121,0.121"
         id="path70" />
      <path
         d="m 93.6073,100.849 -0.1814,0.0604"
         id="path71" />
      <path
         d="M 93.4259,100.9094 H 93.1235"
         id="path72" />
      <path
         d="M 95.0588,100.9094 H 94.3331"
         id="path73" />
      <path
         d="m 94.6959,100.9094 v -1.27"
         id="path74" />
      <path
         d="M 94.6959,99.6394 94.575,99.8209"
         id="path75" />
      <path
         d="m 94.575,99.8209 -0.121,0.1209"
         id="path76" />
      <path
         d="m 94.454,99.9418 -0.1209,0.0605"
         id="path77" />
    </g>
    <path
       d="m 93.662874,102.91208 q 0.04362,0.0356 0.07179,0.0893 0.02817,0.0538 0.02817,0.13891 0,0.0843 -0.03362,0.15461 -0.03362,0.0703 -0.09451,0.12237 -0.06816,0.0579 -0.160847,0.086 -0.09178,0.0273 -0.20174,0.0273 -0.112683,0 -0.221732,-0.0248 -0.109049,-0.024 -0.179021,-0.0529 v -0.1728 h 0.01363 q 0.07724,0.0463 0.181747,0.0769 0.104505,0.0306 0.20174,0.0306 0.05725,0 0.121771,-0.0174 0.06452,-0.0174 0.104505,-0.0513 0.0418,-0.0364 0.06179,-0.0802 0.0209,-0.0438 0.0209,-0.1108 0,-0.0661 -0.02363,-0.10913 -0.02272,-0.0438 -0.06361,-0.0686 -0.04089,-0.0256 -0.09905,-0.0347 -0.05816,-0.01 -0.125406,-0.01 h -0.08179 v -0.13725 h 0.06361 q 0.138129,0 0.219915,-0.0521 0.0827,-0.0529 0.0827,-0.15378 0,-0.0447 -0.0209,-0.0777 -0.0209,-0.0339 -0.05816,-0.0554 -0.03908,-0.0215 -0.0836,-0.0298 -0.04453,-0.008 -0.10087,-0.008 -0.08633,0 -0.183565,0.0281 -0.09724,0.0281 -0.183565,0.0794 h -0.0091 v -0.1728 q 0.06452,-0.0289 0.171752,-0.0529 0.10814,-0.0248 0.20901,-0.0248 0.09905,0 0.174478,0.0165 0.07543,0.0165 0.13631,0.0529 0.06543,0.0397 0.09905,0.0959 0.03362,0.0562 0.03362,0.13147 0,0.10252 -0.07997,0.17941 -0.07906,0.0761 -0.1872,0.0959 v 0.0116 q 0.04362,0.007 0.09996,0.0281 0.05634,0.0207 0.09542,0.0521 z m 0.687006,0.59282 h -0.217188 v -0.23564 h 0.217188 z m 1.312219,-0.39935 q 0,0.18769 -0.136311,0.30675 -0.135402,0.11823 -0.332598,0.11823 -0.09996,0 -0.181748,-0.0281 -0.08179,-0.0281 -0.144489,-0.0835 -0.07815,-0.0686 -0.120862,-0.1819 -0.0418,-0.11327 -0.0418,-0.27284 0,-0.16371 0.03817,-0.29021 0.03907,-0.1265 0.123588,-0.22489 0.07997,-0.0934 0.206284,-0.14552 0.126315,-0.0529 0.294431,-0.0529 0.05362,0 0.08996,0.004 0.03635,0.004 0.07361,0.0149 v 0.15792 h -0.0091 q -0.02544,-0.0124 -0.07724,-0.0232 -0.05089,-0.0116 -0.104505,-0.0116 -0.195379,0 -0.311697,0.11162 -0.116319,0.11079 -0.135402,0.30013 0.07633,-0.0422 0.149941,-0.0637 0.07452,-0.0223 0.171752,-0.0223 0.08633,0 0.151759,0.0149 0.06634,0.014 0.135403,0.0579 0.07997,0.0504 0.119953,0.12733 0.04089,0.0769 0.04089,0.18686 z m -0.184474,0.007 q 0,-0.0769 -0.02544,-0.12732 -0.02454,-0.0504 -0.08179,-0.0876 -0.0418,-0.0265 -0.09269,-0.0347 -0.05089,-0.008 -0.106323,-0.008 -0.07724,0 -0.14358,0.0165 -0.06634,0.0165 -0.136311,0.0513 -0.0018,0.0182 -0.0027,0.0356 -9.09e-4,0.0165 -9.09e-4,0.0422 0,0.13063 0.02908,0.2067 0.02999,0.0752 0.08179,0.11906 0.0418,0.0364 0.08996,0.0537 0.04907,0.0165 0.106323,0.0165 0.131767,0 0.207192,-0.0728 0.07543,-0.0736 0.07543,-0.21084 z m 1.533951,-0.83838 -0.492536,1.23112 h -0.239907 l -0.492537,-1.23112 h 0.192653 l 0.424381,1.08312 0.424381,-1.08312 z"
       id="text77"
       style="font-size:1.6933px;text-anchor:middle;opacity:0;stroke-opacity:0"
       aria-label="3.6V" />
    <g
       class="stroked-text"
       id="g118">
      
      <path
         d="m 93.0026,102.1794 h 0.7862"
         id="path78" />
      <path
         d="m 93.7888,102.1794 -0.4234,0.4838"
         id="path79" />
      <path
         d="m 93.3654,102.6632 h 0.1815"
         id="path80" />
      <path
         d="m 93.5469,102.6632 0.1209,0.0605"
         id="path81" />
      <path
         d="m 93.6678,102.7237 0.0605,0.0605"
         id="path82" />
      <path
         d="m 93.7283,102.7842 0.0605,0.1209"
         id="path83" />
      <path
         d="m 93.7888,102.9051 v 0.3024"
         id="path84" />
      <path
         d="m 93.7888,103.2075 -0.0605,0.121"
         id="path85" />
      <path
         d="m 93.7283,103.3285 -0.0605,0.0605"
         id="path86" />
      <path
         d="m 93.6678,103.389 -0.1209,0.0604"
         id="path87" />
      <path
         d="M 93.5469,103.4494 H 93.184"
         id="path88" />
      <path
         d="M 93.184,103.4494 93.0631,103.389"
         id="path89" />
      <path
         d="m 93.0631,103.389 -0.0605,-0.0605"
         id="path90" />
      <path
         d="m 94.333,103.3285 0.0605,0.0605"
         id="path91" />
      <path
         d="m 94.3935,103.389 -0.0605,0.0604"
         id="path92" />
      <path
         d="M 94.333,103.4494 94.2726,103.389"
         id="path93" />
      <path
         d="m 94.2726,103.389 0.0604,-0.0605"
         id="path94" />
      <path
         d="m 94.333,103.3285 v 0.1209"
         id="path95" />
      <path
         d="M 95.4821,102.1794 H 95.2402"
         id="path96" />
      <path
         d="m 95.2402,102.1794 -0.1209,0.0605"
         id="path97" />
      <path
         d="m 95.1193,102.2399 -0.0605,0.0605"
         id="path98" />
      <path
         d="m 95.0588,102.3004 -0.121,0.1814"
         id="path99" />
      <path
         d="m 94.9378,102.4818 -0.0604,0.2419"
         id="path100" />
      <path
         d="m 94.8774,102.7237 v 0.4838"
         id="path101" />
      <path
         d="m 94.8774,103.2075 0.0604,0.121"
         id="path102" />
      <path
         d="m 94.9378,103.3285 0.0605,0.0605"
         id="path103" />
      <path
         d="m 94.9983,103.389 0.121,0.0604"
         id="path104" />
      <path
         d="m 95.1193,103.4494 h 0.2419"
         id="path105" />
      <path
         d="m 95.3612,103.4494 0.1209,-0.0604"
         id="path106" />
      <path
         d="m 95.4821,103.389 0.0605,-0.0605"
         id="path107" />
      <path
         d="m 95.5426,103.3285 0.0605,-0.121"
         id="path108" />
      <path
         d="m 95.6031,103.2075 v -0.3024"
         id="path109" />
      <path
         d="m 95.6031,102.9051 -0.0605,-0.1209"
         id="path110" />
      <path
         d="m 95.5426,102.7842 -0.0605,-0.0605"
         id="path111" />
      <path
         d="m 95.4821,102.7237 -0.1209,-0.0605"
         id="path112" />
      <path
         d="M 95.3612,102.6632 H 95.1193"
         id="path113" />
      <path
         d="m 95.1193,102.6632 -0.121,0.0605"
         id="path114" />
      <path
         d="m 94.9983,102.7237 -0.0605,0.0605"
         id="path115" />
      <path
         d="m 94.9378,102.7842 -0.0604,0.1209"
         id="path116" />
      <path
         d="m 95.9659,102.1794 0.4233,1.27"
         id="path117" />
      <path
         d="m 96.3892,103.4494 0.4234,-1.27"
         id="path118" />
    </g>
  </g>
  <g
     style="fill:none;stroke:#840000;stroke-width:0.1524;stroke-linecap:round;stroke-linejoin:round;stroke-opacity:1"
     id="g129"
     transform="translate(-75.501292,-79.2433)">
    <path
       d="m 76.0219,99.1115 a 0.1794,0.1794 0 0 0 0.2543,-0.1277"
       id="path119" />
    <path
       d="m 76.9092,99.3648 a 0.2492,0.2492 0 0 0 -0.252,-0.254"
       id="path120" />
    <path
       d="m 76.6573,99.6112 a 0.2512,0.2512 0 0 0 0.2539,-0.2464"
       id="path121" />
    <path
       d="m 76.6571,99.1032 a 0.2568,0.2568 0 0 0 -0.2539,0.2616"
       id="path122" />
    <path
       d="m 76.0222,99.1082 a 0.2518,0.2518 0 0 0 -0.254,0.2566"
       id="path123" />
    <path
       d="m 75.7612,99.3649 a 0.2588,0.2588 0 0 0 0.261,0.2539"
       id="path124" />
    <path
       d="m 76.3985,99.3635 a 0.5706,0.5706 0 0 0 0.2587,0.6363"
       id="path125" />
    <path
       style="fill:none;stroke:#840000;stroke-width:0.1524;stroke-linecap:round;stroke-linejoin:round;stroke-opacity:1"
       d="m 76.0476,99.6188 h 0.6096"
       id="path126" />
    <path
       style="fill:none;stroke:#840000;stroke-width:0.254;stroke-linecap:round;stroke-linejoin:round;stroke-opacity:1"
       d="M 78.74,100.33 H 76.2"
       id="path127" />
    <path
       style="fill:none;stroke:#840000;stroke-width:0.1524;stroke-linecap:round;stroke-linejoin:round;stroke-opacity:1"
       d="m 77.47,102.87 v -2.54"
       id="path128" />
    <path
       style="fill:#840000;fill-opacity:1;fill-rule:evenodd;stroke:#840000;stroke-width:0.254;stroke-linecap:round;stroke-linejoin:round;stroke-opacity:1"
       d="m 76.2,102.87 h 2.54 l -1.27,-2.54 z"
       id="path129" />
  </g>
  <g
     style="fill:none;stroke:#840000;stroke-width:0.1524;stroke-linecap:round;stroke-linejoin:round;stroke-opacity:1"
     id="g131"
     transform="translate(-75.501292,-79.2433)">
    <path
       d="M 77.47,100.33 V 97.79"
       id="path130" />
    <path
       d="m 77.47,102.87 v 2.54"
       id="path131" />
  </g>
  <g
     style="fill:none;stroke:#006464;stroke-width:0.1524;stroke-linecap:round;stroke-linejoin:round;stroke-opacity:1"
     id="g171"
     transform="translate(-75.501292,-79.2433)">
    <path
       d="m 81.083894,102.235 h -0.877902 v -1.23111 h 0.184527 v 1.08559 h 0.693375 z m 1.4203,0 h -0.184527 v -1.06079 l -0.38583,0.7218 h -0.10997 l -0.383034,-0.7218 v 1.06079 h -0.172412 v -1.23111 h 0.251628 l 0.369986,0.68542 0.357871,-0.68542 h 0.256288 z m 1.19663,0 h -0.751156 v -0.12567 h 0.288906 v -0.82516 h -0.288906 v -0.11244 q 0.05871,0 0.125814,-0.008 0.0671,-0.009 0.101583,-0.0256 0.04287,-0.0207 0.0671,-0.0521 0.02516,-0.0323 0.02889,-0.086 h 0.144453 v 1.10958 h 0.283314 z m 1.170536,-0.59282 q 0.04473,0.0356 0.07362,0.0893 0.02889,0.0537 0.02889,0.1389 0,0.0843 -0.03448,0.15461 -0.03448,0.0703 -0.09692,0.12237 -0.0699,0.0579 -0.164956,0.086 -0.09413,0.0273 -0.206894,0.0273 -0.115562,0 -0.227397,-0.0248 -0.111835,-0.024 -0.183595,-0.0529 v -0.1728 h 0.01398 q 0.07922,0.0463 0.186391,0.0769 0.107175,0.0306 0.206894,0.0306 0.05871,0 0.124882,-0.0174 0.06617,-0.0174 0.107175,-0.0513 0.04287,-0.0364 0.06337,-0.0802 0.02143,-0.0438 0.02143,-0.11079 0,-0.0661 -0.02423,-0.10914 -0.0233,-0.0438 -0.06524,-0.0686 -0.04194,-0.0256 -0.101583,-0.0347 -0.05964,-0.01 -0.12861,-0.01 h -0.08388 v -0.13725 h 0.06524 q 0.141658,0 0.225534,-0.0521 0.08481,-0.0529 0.08481,-0.15379 0,-0.0447 -0.02143,-0.0777 -0.02143,-0.0339 -0.05965,-0.0554 -0.04007,-0.0215 -0.08574,-0.0298 -0.04566,-0.008 -0.103447,-0.008 -0.08853,0 -0.188254,0.0281 -0.09972,0.0281 -0.188255,0.0794 h -0.0093 v -0.17281 q 0.06617,-0.0289 0.17614,-0.0529 0.110902,-0.0248 0.214349,-0.0248 0.101583,0 0.178936,0.0165 0.07735,0.0165 0.139793,0.0529 0.0671,0.0397 0.101583,0.0959 0.03448,0.0562 0.03448,0.13146 0,0.10252 -0.08201,0.17942 -0.08108,0.0761 -0.191982,0.0959 v 0.0116 q 0.04473,0.007 0.102515,0.0281 0.05778,0.0207 0.09785,0.0521 z m 1.324308,0.20174 q 0,0.086 -0.03541,0.16454 -0.03542,0.0785 -0.09692,0.13228 -0.0671,0.0579 -0.160296,0.0893 -0.09226,0.0306 -0.21435,0.0306 -0.113698,0 -0.219009,-0.0215 -0.105311,-0.0207 -0.178004,-0.0504 v -0.17446 h 0.01305 q 0.07642,0.043 0.178935,0.0736 0.102515,0.0298 0.201302,0.0298 0.06617,0 0.127678,-0.0165 0.06244,-0.0165 0.110903,-0.0579 0.04101,-0.0356 0.06151,-0.0852 0.02143,-0.0496 0.02143,-0.11493 0,-0.0637 -0.02516,-0.10748 -0.02423,-0.0438 -0.06803,-0.0703 -0.04846,-0.0314 -0.118359,-0.0438 -0.06896,-0.0132 -0.154704,-0.0132 -0.08201,0 -0.158433,0.01 -0.07549,0.01 -0.130473,0.0199 v -0.63416 h 0.835031 v 0.14469 h -0.655164 v 0.32741 q 0.04007,-0.003 0.08201,-0.005 0.04194,-0.002 0.07269,-0.002 0.112767,0 0.197575,0.0174 0.08481,0.0165 0.155636,0.0595 0.07456,0.0455 0.115563,0.11741 0.04101,0.0719 0.04101,0.18024 z"
       id="text131"
       style="font-size:1.6933px;text-anchor:middle;opacity:0;stroke-opacity:0"
       aria-label="LM135" />
    <g
       class="stroked-text"
       id="g170">
      
      <path
         d="M 81.0283,102.1795 H 80.4235"
         id="path132" />
      <path
         d="m 80.4235,102.1795 v -1.27"
         id="path133" />
      <path
         d="m 81.4516,102.1795 v -1.27"
         id="path134" />
      <path
         d="m 81.4516,100.9095 0.4234,0.9072"
         id="path135" />
      <path
         d="m 81.875,101.8167 0.4233,-0.9072"
         id="path136" />
      <path
         d="m 82.2983,100.9095 v 1.27"
         id="path137" />
      <path
         d="M 83.5683,102.1795 H 82.8426"
         id="path138" />
      <path
         d="m 83.2054,102.1795 v -1.27"
         id="path139" />
      <path
         d="m 83.2054,100.9095 -0.1209,0.1815"
         id="path140" />
      <path
         d="m 83.0845,101.091 -0.121,0.1209"
         id="path141" />
      <path
         d="m 82.9635,101.2119 -0.1209,0.0605"
         id="path142" />
      <path
         d="m 83.9916,100.9095 h 0.7862"
         id="path143" />
      <path
         d="m 84.7778,100.9095 -0.4234,0.4838"
         id="path144" />
      <path
         d="m 84.3544,101.3933 h 0.1815"
         id="path145" />
      <path
         d="m 84.5359,101.3933 0.1209,0.0605"
         id="path146" />
      <path
         d="m 84.6568,101.4538 0.0605,0.0605"
         id="path147" />
      <path
         d="m 84.7173,101.5143 0.0605,0.1209"
         id="path148" />
      <path
         d="m 84.7778,101.6352 v 0.3024"
         id="path149" />
      <path
         d="m 84.7778,101.9376 -0.0605,0.121"
         id="path150" />
      <path
         d="m 84.7173,102.0586 -0.0605,0.0605"
         id="path151" />
      <path
         d="m 84.6568,102.1191 -0.1209,0.0604"
         id="path152" />
      <path
         d="M 84.5359,102.1795 H 84.173"
         id="path153" />
      <path
         d="m 84.173,102.1795 -0.1209,-0.0604"
         id="path154" />
      <path
         d="m 84.0521,102.1191 -0.0605,-0.0605"
         id="path155" />
      <path
         d="M 85.9268,100.9095 H 85.322"
         id="path156" />
      <path
         d="m 85.322,100.9095 -0.0604,0.6048"
         id="path157" />
      <path
         d="m 85.2616,101.5143 0.0604,-0.0605"
         id="path158" />
      <path
         d="m 85.322,101.4538 0.121,-0.0605"
         id="path159" />
      <path
         d="m 85.443,101.3933 h 0.3024"
         id="path160" />
      <path
         d="m 85.7454,101.3933 0.1209,0.0605"
         id="path161" />
      <path
         d="m 85.8663,101.4538 0.0605,0.0605"
         id="path162" />
      <path
         d="m 85.9268,101.5143 0.0605,0.1209"
         id="path163" />
      <path
         d="m 85.9873,101.6352 v 0.3024"
         id="path164" />
      <path
         d="m 85.9873,101.9376 -0.0605,0.121"
         id="path165" />
      <path
         d="m 85.9268,102.0586 -0.0605,0.0605"
         id="path166" />
      <path
         d="m 85.8663,102.1191 -0.1209,0.0604"
         id="path167" />
      <path
         d="M 85.7454,102.1795 H 85.443"
         id="path168" />
      <path
         d="m 85.443,102.1795 -0.121,-0.0604"
         id="path169" />
      <path
         d="m 85.322,102.1191 -0.0604,-0.0605"
         id="path170" />
    </g>
    <path
       style="fill:none;stroke:#840000;stroke-width:0.1524;stroke-linecap:round;stroke-linejoin:round;stroke-opacity:1"
       d="m 90.17,105.41 v 1.27 h 1.27 l -1.27,1.27 -1.27,-1.27 h 1.27"
       id="path171" />
  </g>
  <g
     style="fill:none;stroke:#006464;stroke-width:0.1524;stroke-linecap:round;stroke-linejoin:round;stroke-opacity:1"
     id="g203"
     transform="translate(-75.501292,-79.2433)">
    <path
       d="m 89.510525,110.34825 q -0.105788,0.0463 -0.231519,0.081 -0.124865,0.0339 -0.241925,0.0339 -0.150878,0 -0.276609,-0.0397 -0.125732,-0.0397 -0.214177,-0.11906 -0.08931,-0.0802 -0.137872,-0.20009 -0.04856,-0.12071 -0.04856,-0.28194 0,-0.29517 0.18036,-0.46549 0.181226,-0.17115 0.496856,-0.17115 0.110123,0 0.224582,0.0256 0.115326,0.0248 0.247995,0.0852 v 0.1943 h -0.01561 q -0.02688,-0.0198 -0.07804,-0.0521 -0.05116,-0.0323 -0.100586,-0.0538 -0.05983,-0.0256 -0.136136,-0.0422 -0.07544,-0.0174 -0.171689,-0.0174 -0.216778,0 -0.343377,0.13312 -0.125732,0.13229 -0.125732,0.35883 0,0.23895 0.131802,0.37207 0.131801,0.13228 0.358985,0.13228 0.08324,0 0.165619,-0.0157 0.08324,-0.0157 0.145675,-0.0405 v -0.30178 h -0.345979 v -0.14387 h 0.515933 z m 1.285063,0.091 h -0.212443 l -0.612183,-1.10131 v 1.10131 h -0.160416 v -1.23111 h 0.266204 l 0.558421,1.00539 v -1.00539 h 0.160417 z m 1.434206,-0.61432 q 0,0.16785 -0.07717,0.30427 -0.07631,0.13642 -0.203771,0.21166 -0.08845,0.0521 -0.197702,0.0752 -0.108389,0.0232 -0.286148,0.0232 h -0.326035 v -1.23111 h 0.322567 q 0.189031,0 0.300021,0.0264 0.111858,0.0256 0.189031,0.0711 0.131801,0.0786 0.205506,0.20918 0.07371,0.13064 0.07371,0.31005 z m -0.179493,-0.002 q 0,-0.14469 -0.05289,-0.2439 -0.05289,-0.0992 -0.157815,-0.15627 -0.07631,-0.0413 -0.16215,-0.0571 -0.08584,-0.0165 -0.205506,-0.0165 h -0.161283 v 0.95 h 0.161283 q 0.123997,0 0.215911,-0.0174 0.09278,-0.0174 0.169955,-0.0645 0.09625,-0.0587 0.143941,-0.15461 0.04856,-0.0959 0.04856,-0.23978 z"
       id="text171"
       style="font-size:1.6933px;text-anchor:middle;opacity:0;stroke-opacity:0"
       aria-label="GND" />
    <g
       class="stroked-text"
       id="g202">
      
      <path
         d="m 89.3294,109.1742 -0.121,-0.0605"
         id="path172" />
      <path
         d="M 89.2084,109.1137 H 89.027"
         id="path173" />
      <path
         d="m 89.027,109.1137 -0.1814,0.0605"
         id="path174" />
      <path
         d="m 88.8456,109.1742 -0.121,0.121"
         id="path175" />
      <path
         d="m 88.7246,109.2952 -0.0605,0.1209"
         id="path176" />
      <path
         d="m 88.6641,109.4161 -0.0604,0.2419"
         id="path177" />
      <path
         d="m 88.6037,109.658 v 0.1814"
         id="path178" />
      <path
         d="m 88.6037,109.8394 0.0604,0.2419"
         id="path179" />
      <path
         d="m 88.6641,110.0813 0.0605,0.121"
         id="path180" />
      <path
         d="m 88.7246,110.2023 0.121,0.121"
         id="path181" />
      <path
         d="m 88.8456,110.3233 0.1814,0.0604"
         id="path182" />
      <path
         d="m 89.027,110.3837 h 0.1209"
         id="path183" />
      <path
         d="m 89.1479,110.3837 0.1815,-0.0604"
         id="path184" />
      <path
         d="m 89.3294,110.3233 0.0604,-0.0605"
         id="path185" />
      <path
         d="m 89.3898,110.2628 v -0.4234"
         id="path186" />
      <path
         d="M 89.3898,109.8394 H 89.1479"
         id="path187" />
      <path
         d="m 89.9341,110.3837 v -1.27"
         id="path188" />
      <path
         d="m 89.9341,109.1137 0.7257,1.27"
         id="path189" />
      <path
         d="m 90.6598,110.3837 v -1.27"
         id="path190" />
      <path
         d="m 91.2646,110.3837 v -1.27"
         id="path191" />
      <path
         d="M 91.2646,109.1137 H 91.567"
         id="path192" />
      <path
         d="m 91.567,109.1137 0.1814,0.0605"
         id="path193" />
      <path
         d="m 91.7484,109.1742 0.121,0.121"
         id="path194" />
      <path
         d="m 91.8694,109.2952 0.0605,0.1209"
         id="path195" />
      <path
         d="m 91.9299,109.4161 0.0604,0.2419"
         id="path196" />
      <path
         d="m 91.9903,109.658 v 0.1814"
         id="path197" />
      <path
         d="m 91.9903,109.8394 -0.0604,0.2419"
         id="path198" />
      <path
         d="m 91.9299,110.0813 -0.0605,0.121"
         id="path199" />
      <path
         d="m 91.8694,110.2023 -0.121,0.121"
         id="path200" />
      <path
         d="m 91.7484,110.3233 -0.1814,0.0604"
         id="path201" />
      <path
         d="M 91.567,110.3837 H 91.2646"
         id="path202" />
    </g>
    <path
       style="fill:none;stroke:#840000;stroke-width:0.1524;stroke-linecap:round;stroke-linejoin:round;stroke-opacity:1"
       d="m 77.47,105.41 v 1.27 h 1.27 l -1.27,1.27 -1.27,-1.27 h 1.27"
       id="path203" />
  </g>
  <g
     style="fill:none;stroke:#006464;stroke-width:0.1524;stroke-linecap:round;stroke-linejoin:round;stroke-opacity:1"
     id="g235"
     transform="translate(-75.501292,-79.2433)">
    <path
       d="m 76.810528,110.34825 q -0.105788,0.0463 -0.231519,0.081 -0.124865,0.0339 -0.241925,0.0339 -0.150878,0 -0.276609,-0.0397 -0.125732,-0.0397 -0.214177,-0.11906 -0.08931,-0.0802 -0.137872,-0.20009 -0.04856,-0.12071 -0.04856,-0.28194 0,-0.29517 0.18036,-0.46549 0.181227,-0.17115 0.496856,-0.17115 0.110123,0 0.224582,0.0256 0.115326,0.0248 0.247995,0.0852 v 0.1943 h -0.01561 q -0.02688,-0.0198 -0.07804,-0.0521 -0.05116,-0.0323 -0.100586,-0.0538 -0.05983,-0.0256 -0.136136,-0.0422 -0.07544,-0.0174 -0.171689,-0.0174 -0.216778,0 -0.343377,0.13312 -0.125731,0.13229 -0.125731,0.35883 0,0.23895 0.131801,0.37207 0.131801,0.13228 0.358985,0.13228 0.08324,0 0.165619,-0.0157 0.08324,-0.0157 0.145675,-0.0405 v -0.30178 h -0.345979 v -0.14387 h 0.515933 z m 1.285063,0.091 h -0.212443 l -0.612183,-1.10131 v 1.10131 h -0.160416 v -1.23111 h 0.266204 l 0.558422,1.00539 v -1.00539 h 0.160416 z m 1.434206,-0.61432 q 0,0.16785 -0.07717,0.30427 -0.07631,0.13642 -0.203771,0.21166 -0.08845,0.0521 -0.197702,0.0752 -0.108389,0.0232 -0.286148,0.0232 h -0.326034 v -1.23111 h 0.322566 q 0.189031,0 0.300021,0.0264 0.111858,0.0256 0.189031,0.0711 0.131801,0.0786 0.205506,0.20918 0.07371,0.13064 0.07371,0.31005 z m -0.179493,-0.002 q 0,-0.14469 -0.05289,-0.2439 -0.05289,-0.0992 -0.157815,-0.15627 -0.07631,-0.0413 -0.16215,-0.0571 -0.08584,-0.0165 -0.205506,-0.0165 H 78.61066 v 0.95 h 0.161283 q 0.123997,0 0.215912,-0.0174 0.09278,-0.0174 0.169954,-0.0645 0.09625,-0.0587 0.143941,-0.15461 0.04856,-0.0959 0.04856,-0.23978 z"
       id="text203"
       style="font-size:1.6933px;text-anchor:middle;opacity:0;stroke-opacity:0"
       aria-label="GND" />
    <g
       class="stroked-text"
       id="g234">
      
      <path
         d="m 76.6294,109.1742 -0.121,-0.0605"
         id="path204" />
      <path
         d="M 76.5084,109.1137 H 76.327"
         id="path205" />
      <path
         d="m 76.327,109.1137 -0.1814,0.0605"
         id="path206" />
      <path
         d="m 76.1456,109.1742 -0.121,0.121"
         id="path207" />
      <path
         d="m 76.0246,109.2952 -0.0605,0.1209"
         id="path208" />
      <path
         d="m 75.9641,109.4161 -0.0604,0.2419"
         id="path209" />
      <path
         d="m 75.9037,109.658 v 0.1814"
         id="path210" />
      <path
         d="m 75.9037,109.8394 0.0604,0.2419"
         id="path211" />
      <path
         d="m 75.9641,110.0813 0.0605,0.121"
         id="path212" />
      <path
         d="m 76.0246,110.2023 0.121,0.121"
         id="path213" />
      <path
         d="m 76.1456,110.3233 0.1814,0.0604"
         id="path214" />
      <path
         d="m 76.327,110.3837 h 0.1209"
         id="path215" />
      <path
         d="m 76.4479,110.3837 0.1815,-0.0604"
         id="path216" />
      <path
         d="m 76.6294,110.3233 0.0604,-0.0605"
         id="path217" />
      <path
         d="m 76.6898,110.2628 v -0.4234"
         id="path218" />
      <path
         d="M 76.6898,109.8394 H 76.4479"
         id="path219" />
      <path
         d="m 77.2341,110.3837 v -1.27"
         id="path220" />
      <path
         d="m 77.2341,109.1137 0.7257,1.27"
         id="path221" />
      <path
         d="m 77.9598,110.3837 v -1.27"
         id="path222" />
      <path
         d="m 78.5646,110.3837 v -1.27"
         id="path223" />
      <path
         d="M 78.5646,109.1137 H 78.867"
         id="path224" />
      <path
         d="m 78.867,109.1137 0.1814,0.0605"
         id="path225" />
      <path
         d="m 79.0484,109.1742 0.121,0.121"
         id="path226" />
      <path
         d="m 79.1694,109.2952 0.0605,0.1209"
         id="path227" />
      <path
         d="m 79.2299,109.4161 0.0604,0.2419"
         id="path228" />
      <path
         d="m 79.2903,109.658 v 0.1814"
         id="path229" />
      <path
         d="m 79.2903,109.8394 -0.0604,0.2419"
         id="path230" />
      <path
         d="m 79.2299,110.0813 -0.0605,0.121"
         id="path231" />
      <path
         d="m 79.1694,110.2023 -0.121,0.121"
         id="path232" />
      <path
         d="m 79.0484,110.3233 -0.1814,0.0604"
         id="path233" />
      <path
         d="M 78.867,110.3837 H 78.5646"
         id="path234" />
    </g>
  </g>
  <g
     style="fill:none;stroke:#840000;stroke-width:0.1524;stroke-linecap:round;stroke-linejoin:round;stroke-opacity:1"
     id="g298"
     transform="translate(-75.501292,-79.2433)">
    <path
       d="m 94.122867,95.382979 q 0.04331,0.03555 0.07128,0.08929 0.02797,0.05374 0.02797,0.138904 0,0.08433 -0.03338,0.154613 -0.03338,0.07028 -0.09384,0.122367 -0.06767,0.05788 -0.159703,0.08599 -0.09113,0.02728 -0.200306,0.02728 -0.111882,0 -0.220156,-0.02481 -0.108273,-0.02398 -0.177748,-0.05291 V 95.7509 h 0.01353 q 0.07669,0.0463 0.180455,0.07689 0.103762,0.03059 0.200306,0.03059 0.05684,0 0.120905,-0.01736 0.06406,-0.01736 0.103762,-0.05126 0.04151,-0.03638 0.06136,-0.0802 0.02075,-0.04382 0.02075,-0.110792 0,-0.06615 -0.02346,-0.109139 -0.02256,-0.04382 -0.06316,-0.06862 -0.0406,-0.02563 -0.09835,-0.03473 -0.05775,-0.0099 -0.124515,-0.0099 h -0.0812 v -0.13725 h 0.06316 q 0.137146,0 0.218351,-0.05209 0.08211,-0.05292 0.08211,-0.153786 0,-0.04465 -0.02075,-0.07772 -0.02075,-0.0339 -0.05775,-0.0554 -0.0388,-0.0215 -0.08301,-0.02977 -0.04421,-0.0083 -0.100153,-0.0083 -0.08572,0 -0.18226,0.02811 -0.09654,0.02811 -0.182261,0.07937 h -0.009 V 94.79674 q 0.06406,-0.02894 0.17053,-0.05291 0.107371,-0.02481 0.207524,-0.02481 0.09835,0 0.173237,0.01654 0.07489,0.01654 0.135342,0.05291 0.06496,0.03969 0.09835,0.09591 0.03338,0.05622 0.03338,0.131462 0,0.102524 -0.0794,0.179417 -0.0785,0.07607 -0.185869,0.09591 v 0.01158 q 0.04331,0.0066 0.09925,0.02811 0.05594,0.02067 0.09474,0.05209 z m 0.682122,0.592821 h -0.215644 v -0.23564 h 0.215644 z m 1.164841,-0.592821 q 0.04331,0.03555 0.07128,0.08929 0.02797,0.05374 0.02797,0.138904 0,0.08433 -0.03338,0.154613 -0.03338,0.07028 -0.09384,0.122367 -0.06767,0.05788 -0.159703,0.08599 -0.09113,0.02728 -0.200306,0.02728 -0.111882,0 -0.220155,-0.02481 -0.108274,-0.02398 -0.177749,-0.05291 V 95.7509 h 0.01353 q 0.07669,0.0463 0.180456,0.07689 0.103762,0.03059 0.200305,0.03059 0.05684,0 0.120906,-0.01736 0.06406,-0.01736 0.103762,-0.05126 0.0415,-0.03638 0.06135,-0.0802 0.02075,-0.04382 0.02075,-0.110792 0,-0.06615 -0.02346,-0.109139 -0.02256,-0.04382 -0.06316,-0.06862 -0.0406,-0.02563 -0.09835,-0.03473 -0.05775,-0.0099 -0.124515,-0.0099 h -0.08121 v -0.13725 h 0.06316 q 0.137146,0 0.218351,-0.05209 0.08211,-0.05292 0.08211,-0.153786 0,-0.04465 -0.02075,-0.07772 -0.02075,-0.0339 -0.05775,-0.0554 -0.0388,-0.0215 -0.08301,-0.02977 -0.04421,-0.0083 -0.100153,-0.0083 -0.08572,0 -0.18226,0.02811 -0.09654,0.02811 -0.18226,0.07937 h -0.009 V 94.79674 q 0.06406,-0.02894 0.17053,-0.05291 0.107371,-0.02481 0.207524,-0.02481 0.09835,0 0.173238,0.01654 0.07489,0.01654 0.135341,0.05291 0.06496,0.03969 0.09835,0.09591 0.03338,0.05622 0.03338,0.131462 0,0.102524 -0.0794,0.179417 -0.0785,0.07607 -0.185869,0.09591 v 0.01158 q 0.04331,0.0066 0.09925,0.02811 0.05594,0.02067 0.09474,0.05209 z m 1.477931,-0.638295 -0.489034,1.231116 h -0.238202 l -0.489034,-1.231116 h 0.191283 l 0.421363,1.083117 0.421364,-1.083117 z m 1.91283,1.231116 H 99.17021 L 99.038478,95.632675 H 98.457411 L 98.325678,95.9758 H 98.14432 l 0.489035,-1.231116 h 0.238201 z m -0.377152,-0.483682 -0.235495,-0.604396 -0.236397,0.604396 z m 1.716131,-0.130636 q 0,0.167842 -0.0803,0.304265 -0.0794,0.136423 -0.21204,0.211663 -0.092,0.05209 -0.20572,0.07524 -0.11278,0.02315 -0.297747,0.02315 h -0.339257 v -1.231116 h 0.335647 q 0.196697,0 0.312187,0.02646 0.1164,0.02563 0.1967,0.07111 0.13714,0.07855 0.21384,0.209182 0.0767,0.130635 0.0767,0.310052 z m -0.18677,-0.0025 q 0,-0.144691 -0.055,-0.243908 -0.055,-0.09922 -0.16421,-0.156267 -0.0794,-0.04134 -0.16873,-0.05705 -0.0893,-0.01654 -0.213839,-0.01654 h -0.167824 v 0.95 h 0.167824 q 0.129029,0 0.224669,-0.01736 0.0965,-0.01736 0.17684,-0.06449 0.10016,-0.0587 0.14978,-0.154613 0.0505,-0.09591 0.0505,-0.239774 z m 1.51312,0.527502 q -0.0496,0.01984 -0.0902,0.03721 -0.0397,0.01736 -0.10466,0.03638 -0.055,0.01571 -0.12,0.02646 -0.0641,0.01158 -0.14166,0.01158 -0.14617,0 -0.26617,-0.03721 -0.1191,-0.03803 -0.20753,-0.118233 -0.0866,-0.07855 -0.13534,-0.199261 -0.0487,-0.12154 -0.0487,-0.281941 0,-0.152132 0.0469,-0.272019 0.0469,-0.119887 0.13534,-0.202568 0.0857,-0.0802 0.20662,-0.122367 0.12181,-0.04217 0.26978,-0.04217 0.10827,0 0.21564,0.02398 0.10828,0.02398 0.24001,0.08433 v 0.1943 h -0.0135 q -0.11098,-0.08516 -0.22016,-0.124021 -0.10918,-0.03886 -0.23369,-0.03886 -0.10196,0 -0.18406,0.03059 -0.0812,0.02976 -0.14527,0.09343 -0.0623,0.06201 -0.0974,0.157093 -0.0343,0.09426 -0.0343,0.218277 0,0.129809 0.0379,0.223238 0.0388,0.09343 0.0993,0.152132 0.0632,0.06118 0.14707,0.09095 0.0848,0.02894 0.17866,0.02894 0.12902,0 0.24181,-0.04051 0.11278,-0.04051 0.21113,-0.121541 h 0.0126 z"
       id="text235"
       style="font-size:1.6933px;opacity:0;stroke-opacity:0"
       aria-label="3.3V ADC" />
    <g
       class="stroked-text"
       id="g297">
      
      <path
         d="m 93.4679,94.6503 h 0.7862"
         id="path235" />
      <path
         d="m 94.2541,94.6503 -0.4234,0.4838"
         id="path236" />
      <path
         d="m 93.8307,95.1341 h 0.1815"
         id="path237" />
      <path
         d="m 94.0122,95.1341 0.1209,0.0605"
         id="path238" />
      <path
         d="m 94.1331,95.1946 0.0605,0.0605"
         id="path239" />
      <path
         d="m 94.1936,95.2551 0.0605,0.1209"
         id="path240" />
      <path
         d="m 94.2541,95.376 v 0.3024"
         id="path241" />
      <path
         d="m 94.2541,95.6784 -0.0605,0.121"
         id="path242" />
      <path
         d="m 94.1936,95.7994 -0.0605,0.0605"
         id="path243" />
      <path
         d="m 94.1331,95.8599 -0.1209,0.0604"
         id="path244" />
      <path
         d="M 94.0122,95.9203 H 93.6493"
         id="path245" />
      <path
         d="M 93.6493,95.9203 93.5284,95.8599"
         id="path246" />
      <path
         d="M 93.5284,95.8599 93.4679,95.7994"
         id="path247" />
      <path
         d="m 94.7983,95.7994 0.0605,0.0605"
         id="path248" />
      <path
         d="m 94.8588,95.8599 -0.0605,0.0604"
         id="path249" />
      <path
         d="M 94.7983,95.9203 94.7379,95.8599"
         id="path250" />
      <path
         d="m 94.7379,95.8599 0.0604,-0.0605"
         id="path251" />
      <path
         d="m 94.7983,95.7994 v 0.1209"
         id="path252" />
      <path
         d="m 95.2822,94.6503 h 0.7862"
         id="path253" />
      <path
         d="M 96.0684,94.6503 95.645,95.1341"
         id="path254" />
      <path
         d="m 95.645,95.1341 h 0.1815"
         id="path255" />
      <path
         d="m 95.8265,95.1341 0.1209,0.0605"
         id="path256" />
      <path
         d="m 95.9474,95.1946 0.0605,0.0605"
         id="path257" />
      <path
         d="m 96.0079,95.2551 0.0605,0.1209"
         id="path258" />
      <path
         d="m 96.0684,95.376 v 0.3024"
         id="path259" />
      <path
         d="m 96.0684,95.6784 -0.0605,0.121"
         id="path260" />
      <path
         d="m 96.0079,95.7994 -0.0605,0.0605"
         id="path261" />
      <path
         d="m 95.9474,95.8599 -0.1209,0.0604"
         id="path262" />
      <path
         d="M 95.8265,95.9203 H 95.4636"
         id="path263" />
      <path
         d="M 95.4636,95.9203 95.3427,95.8599"
         id="path264" />
      <path
         d="M 95.3427,95.8599 95.2822,95.7994"
         id="path265" />
      <path
         d="m 96.4312,94.6503 0.4233,1.27"
         id="path266" />
      <path
         d="m 96.8545,95.9203 0.4234,-1.27"
         id="path267" />
      <path
         d="m 98.6084,95.5575 h 0.6047"
         id="path268" />
      <path
         d="m 98.4874,95.9203 0.4233,-1.27"
         id="path269" />
      <path
         d="m 98.9107,94.6503 0.4234,1.27"
         id="path270" />
      <path
         d="m 99.7574,95.9203 v -1.27"
         id="path271" />
      <path
         d="m 99.7574,94.6503 h 0.3024"
         id="path272" />
      <path
         d="m 100.0598,94.6503 0.1814,0.0605"
         id="path273" />
      <path
         d="m 100.2412,94.7108 0.121,0.121"
         id="path274" />
      <path
         d="m 100.3622,94.8318 0.0605,0.1209"
         id="path275" />
      <path
         d="m 100.4227,94.9527 0.0604,0.2419"
         id="path276" />
      <path
         d="M 100.4831,95.1946 V 95.376"
         id="path277" />
      <path
         d="m 100.4831,95.376 -0.0604,0.2419"
         id="path278" />
      <path
         d="m 100.4227,95.6179 -0.0605,0.121"
         id="path279" />
      <path
         d="m 100.3622,95.7389 -0.121,0.121"
         id="path280" />
      <path
         d="m 100.2412,95.8599 -0.1814,0.0604"
         id="path281" />
      <path
         d="M 100.0598,95.9203 H 99.7574"
         id="path282" />
      <path
         d="m 101.7531,95.7994 -0.0604,0.0605"
         id="path283" />
      <path
         d="m 101.6927,95.8599 -0.1815,0.0604"
         id="path284" />
      <path
         d="m 101.5112,95.9203 h -0.1209"
         id="path285" />
      <path
         d="m 101.3903,95.9203 -0.1814,-0.0604"
         id="path286" />
      <path
         d="m 101.2089,95.8599 -0.121,-0.121"
         id="path287" />
      <path
         d="m 101.0879,95.7389 -0.0605,-0.121"
         id="path288" />
      <path
         d="M 101.0274,95.6179 100.967,95.376"
         id="path289" />
      <path
         d="M 100.967,95.376 V 95.1946"
         id="path290" />
      <path
         d="m 100.967,95.1946 0.0604,-0.2419"
         id="path291" />
      <path
         d="m 101.0274,94.9527 0.0605,-0.1209"
         id="path292" />
      <path
         d="m 101.0879,94.8318 0.121,-0.121"
         id="path293" />
      <path
         d="m 101.2089,94.7108 0.1814,-0.0605"
         id="path294" />
      <path
         d="m 101.3903,94.6503 h 0.1209"
         id="path295" />
      <path
         d="m 101.5112,94.6503 0.1815,0.0605"
         id="path296" />
      <path
         d="m 101.6927,94.7108 0.0604,0.0605"
         id="path297" />
    </g>
    <path
       style="fill:none;stroke:#840000;stroke-width:0.1524;stroke-linecap:round;stroke-linejoin:round;stroke-opacity:1"
       d="m 92.71,95.25 v 1.2704 h 10.0427 L 103.864,95.25 102.7527,93.9796 H 92.71 Z"
       id="path298" />
  </g>
  <g
     style="fill:none;stroke:#009600;stroke-width:0.1524;stroke-linecap:round;stroke-linejoin:round;stroke-opacity:1"
     id="g303"
     transform="translate(-75.501292,-79.2433)">
    <path
       d="m 77.47,95.25 v 2.54"
       id="path299" />
    <path
       d="m 77.47,92.71 v 2.54"
       id="path300" />
    <path
       d="m 90.17,95.25 h 2.54"
       id="path301" />
    <path
       d="M 90.17,97.79 V 95.25"
       id="path302" />
    <path
       d="m 77.47,95.25 h 12.7"
       id="path303" />
  </g>
  <g
     style="fill:none;stroke:#0000c2;stroke-width:0.1524;stroke-linecap:round;stroke-linejoin:round;stroke-opacity:1"
     id="g395"
     transform="translate(-75.501292,-79.2433)">
    <path
       d="m 81.074295,104.3854 h -0.877902 v -1.23112 h 0.184527 v 1.0856 h 0.693375 z m 1.4203,0 h -0.184527 v -1.06079 l -0.38583,0.7218 h -0.109971 l -0.383033,-0.7218 v 1.06079 h -0.172412 v -1.23112 h 0.251628 l 0.369986,0.68543 0.357871,-0.68543 h 0.256288 z m 1.275846,0 H 82.83103 v -0.1728 q 0.09786,-0.0744 0.195711,-0.14883 0.09879,-0.0744 0.183595,-0.148 0.178936,-0.15378 0.245104,-0.24391 0.06617,-0.0909 0.06617,-0.19595 0,-0.0959 -0.07176,-0.14965 -0.07083,-0.0546 -0.198507,-0.0546 -0.08481,0 -0.183595,0.0265 -0.09879,0.0265 -0.192915,0.081 h -0.0093 v -0.17363 q 0.06617,-0.0289 0.176139,-0.0529 0.110903,-0.024 0.21435,-0.024 0.213418,0 0.334572,0.0918 0.121154,0.091 0.121154,0.24721 0,0.0703 -0.0205,0.13147 -0.01957,0.0603 -0.05871,0.11492 -0.03635,0.0513 -0.08574,0.10087 -0.04846,0.0496 -0.118358,0.10997 -0.09972,0.0868 -0.205962,0.16867 -0.106243,0.081 -0.198507,0.15047 h 0.746496 z m 1.09132,-0.59282 q 0.04473,0.0356 0.07362,0.0893 0.02889,0.0537 0.02889,0.13891 0,0.0843 -0.03448,0.15461 -0.03448,0.0703 -0.09692,0.12237 -0.0699,0.0579 -0.164956,0.086 -0.09413,0.0273 -0.206894,0.0273 -0.115562,0 -0.227397,-0.0248 -0.111835,-0.024 -0.183595,-0.0529 v -0.1728 h 0.01398 q 0.07922,0.0463 0.186391,0.0769 0.107175,0.0306 0.206894,0.0306 0.05871,0 0.124882,-0.0174 0.06617,-0.0174 0.107175,-0.0513 0.04287,-0.0364 0.06337,-0.0802 0.02143,-0.0438 0.02143,-0.11079 0,-0.0662 -0.02423,-0.10914 -0.0233,-0.0438 -0.06524,-0.0686 -0.04194,-0.0256 -0.101583,-0.0347 -0.05965,-0.01 -0.12861,-0.01 h -0.08388 v -0.13725 h 0.06524 q 0.141657,0 0.225533,-0.0521 0.08481,-0.0529 0.08481,-0.15379 0,-0.0447 -0.02144,-0.0777 -0.02143,-0.0339 -0.05964,-0.0554 -0.04007,-0.0215 -0.08574,-0.0298 -0.04566,-0.008 -0.103447,-0.008 -0.08854,0 -0.188255,0.0281 -0.09972,0.0281 -0.188255,0.0794 h -0.0093 v -0.17281 q 0.06617,-0.0289 0.176139,-0.0529 0.110903,-0.0248 0.21435,-0.0248 0.101583,0 0.178935,0.0165 0.07735,0.0165 0.139794,0.0529 0.0671,0.0397 0.101583,0.0959 0.03448,0.0562 0.03448,0.13147 0,0.10252 -0.08201,0.17941 -0.08108,0.0761 -0.191983,0.0959 v 0.0116 q 0.04473,0.007 0.102515,0.0281 0.05778,0.0207 0.09786,0.0521 z m 1.324308,0.20174 q 0,0.086 -0.03541,0.16453 -0.03542,0.0785 -0.09692,0.13229 -0.0671,0.0579 -0.160296,0.0893 -0.09226,0.0306 -0.21435,0.0306 -0.113698,0 -0.219009,-0.0215 -0.105311,-0.0207 -0.178004,-0.0504 v -0.17446 h 0.01305 q 0.07642,0.043 0.178935,0.0736 0.102515,0.0298 0.201302,0.0298 0.06617,0 0.127678,-0.0165 0.06244,-0.0165 0.110903,-0.0579 0.04101,-0.0356 0.06151,-0.0852 0.02143,-0.0496 0.02143,-0.11493 0,-0.0637 -0.02516,-0.10748 -0.02423,-0.0438 -0.06803,-0.0703 -0.04846,-0.0314 -0.118358,-0.0438 -0.06897,-0.0132 -0.154704,-0.0132 -0.08201,0 -0.158433,0.01 -0.07549,0.01 -0.130474,0.0198 v -0.63416 h 0.835032 v 0.14469 h -0.655164 v 0.32742 q 0.04007,-0.003 0.08201,-0.005 0.04194,-0.002 0.07269,-0.002 0.112767,0 0.197575,0.0174 0.08481,0.0165 0.155636,0.0595 0.07456,0.0455 0.115563,0.11741 0.04101,0.0719 0.04101,0.18024 z"
       id="text303"
       style="font-size:1.6933px;opacity:0;stroke-opacity:0"
       aria-label="LM235" />
    <g
       class="stroked-text"
       id="g347">
      
      <path
         d="M 81.0173,104.2219 H 80.4125"
         id="path304" />
      <path
         d="m 80.4125,104.2219 v -1.27"
         id="path305" />
      <path
         d="m 81.4406,104.2219 v -1.27"
         id="path306" />
      <path
         d="m 81.4406,102.9519 0.4234,0.9072"
         id="path307" />
      <path
         d="m 81.864,103.8591 0.4233,-0.9072"
         id="path308" />
      <path
         d="m 82.2873,102.9519 v 1.27"
         id="path309" />
      <path
         d="m 82.8316,103.0729 0.0604,-0.0605"
         id="path310" />
      <path
         d="m 82.892,103.0124 0.121,-0.0605"
         id="path311" />
      <path
         d="m 83.013,102.9519 h 0.3024"
         id="path312" />
      <path
         d="m 83.3154,102.9519 0.1209,0.0605"
         id="path313" />
      <path
         d="m 83.4363,103.0124 0.0605,0.0605"
         id="path314" />
      <path
         d="m 83.4968,103.0729 0.0605,0.1209"
         id="path315" />
      <path
         d="m 83.5573,103.1938 v 0.121"
         id="path316" />
      <path
         d="m 83.5573,103.3148 -0.0605,0.1814"
         id="path317" />
      <path
         d="m 83.4968,103.4962 -0.7257,0.7257"
         id="path318" />
      <path
         d="m 82.7711,104.2219 h 0.7862"
         id="path319" />
      <path
         d="m 83.9806,102.9519 h 0.7862"
         id="path320" />
      <path
         d="m 84.7668,102.9519 -0.4234,0.4838"
         id="path321" />
      <path
         d="m 84.3434,103.4357 h 0.1815"
         id="path322" />
      <path
         d="m 84.5249,103.4357 0.1209,0.0605"
         id="path323" />
      <path
         d="m 84.6458,103.4962 0.0605,0.0605"
         id="path324" />
      <path
         d="m 84.7063,103.5567 0.0605,0.1209"
         id="path325" />
      <path
         d="M 84.7668,103.6776 V 103.98"
         id="path326" />
      <path
         d="m 84.7668,103.98 -0.0605,0.121"
         id="path327" />
      <path
         d="m 84.7063,104.101 -0.0605,0.0605"
         id="path328" />
      <path
         d="m 84.6458,104.1615 -0.1209,0.0604"
         id="path329" />
      <path
         d="M 84.5249,104.2219 H 84.162"
         id="path330" />
      <path
         d="m 84.162,104.2219 -0.1209,-0.0604"
         id="path331" />
      <path
         d="M 84.0411,104.1615 83.9806,104.101"
         id="path332" />
      <path
         d="M 85.9158,102.9519 H 85.311"
         id="path333" />
      <path
         d="m 85.311,102.9519 -0.0604,0.6048"
         id="path334" />
      <path
         d="m 85.2506,103.5567 0.0604,-0.0605"
         id="path335" />
      <path
         d="m 85.311,103.4962 0.121,-0.0605"
         id="path336" />
      <path
         d="m 85.432,103.4357 h 0.3024"
         id="path337" />
      <path
         d="m 85.7344,103.4357 0.1209,0.0605"
         id="path338" />
      <path
         d="m 85.8553,103.4962 0.0605,0.0605"
         id="path339" />
      <path
         d="m 85.9158,103.5567 0.0605,0.1209"
         id="path340" />
      <path
         d="M 85.9763,103.6776 V 103.98"
         id="path341" />
      <path
         d="m 85.9763,103.98 -0.0605,0.121"
         id="path342" />
      <path
         d="m 85.9158,104.101 -0.0605,0.0605"
         id="path343" />
      <path
         d="m 85.8553,104.1615 -0.1209,0.0604"
         id="path344" />
      <path
         d="M 85.7344,104.2219 H 85.432"
         id="path345" />
      <path
         d="m 85.432,104.2219 -0.121,-0.0604"
         id="path346" />
      <path
         d="M 85.311,104.1615 85.2506,104.101"
         id="path347" />
    </g>
    <path
       d="m 81.074295,106.43 h -0.877902 v -1.23111 h 0.184527 v 1.08559 h 0.693375 z m 1.4203,0 h -0.184527 v -1.06079 l -0.38583,0.7218 h -0.109971 l -0.383033,-0.7218 V 106.43 h -0.172412 v -1.23111 h 0.251628 l 0.369986,0.68542 0.357871,-0.68542 h 0.256288 z m 1.15376,-0.59282 q 0.04473,0.0356 0.07363,0.0893 0.02889,0.0537 0.02889,0.1389 0,0.0843 -0.03448,0.15461 -0.03448,0.0703 -0.09692,0.12237 -0.0699,0.0579 -0.164957,0.086 -0.09413,0.0273 -0.206894,0.0273 -0.115562,0 -0.227397,-0.0248 -0.111834,-0.024 -0.183595,-0.0529 v -0.1728 h 0.01398 q 0.07922,0.0463 0.186391,0.0769 0.107174,0.0306 0.206894,0.0306 0.05871,0 0.124882,-0.0174 0.06617,-0.0174 0.107174,-0.0513 0.04287,-0.0364 0.06337,-0.0802 0.02143,-0.0438 0.02143,-0.11079 0,-0.0662 -0.02423,-0.10914 -0.0233,-0.0438 -0.06524,-0.0686 -0.04194,-0.0256 -0.101583,-0.0347 -0.05965,-0.01 -0.12861,-0.01 h -0.08388 v -0.13725 h 0.06524 q 0.141657,0 0.225533,-0.0521 0.08481,-0.0529 0.08481,-0.15379 0,-0.0447 -0.02143,-0.0777 -0.02143,-0.0339 -0.05965,-0.0554 -0.04007,-0.0215 -0.08574,-0.0298 -0.04567,-0.008 -0.103447,-0.008 -0.08854,0 -0.188255,0.0281 -0.09972,0.0281 -0.188255,0.0794 h -0.0093 v -0.17281 q 0.06617,-0.0289 0.17614,-0.0529 0.110902,-0.0248 0.214349,-0.0248 0.101584,0 0.178936,0.0165 0.07735,0.0165 0.139793,0.0529 0.0671,0.0397 0.101583,0.0959 0.03448,0.0562 0.03448,0.13146 0,0.10252 -0.08201,0.17941 -0.08108,0.0761 -0.191983,0.0959 v 0.0116 q 0.04473,0.007 0.102515,0.0281 0.05778,0.0207 0.09785,0.0521 z m 1.213406,0 q 0.04473,0.0356 0.07362,0.0893 0.02889,0.0537 0.02889,0.1389 0,0.0843 -0.03448,0.15461 -0.03448,0.0703 -0.09692,0.12237 -0.0699,0.0579 -0.164956,0.086 -0.09413,0.0273 -0.206894,0.0273 -0.115562,0 -0.227397,-0.0248 -0.111835,-0.024 -0.183595,-0.0529 v -0.1728 h 0.01398 q 0.07922,0.0463 0.186391,0.0769 0.107175,0.0306 0.206894,0.0306 0.05871,0 0.124882,-0.0174 0.06617,-0.0174 0.107175,-0.0513 0.04287,-0.0364 0.06337,-0.0802 0.02143,-0.0438 0.02143,-0.11079 0,-0.0662 -0.02423,-0.10914 -0.0233,-0.0438 -0.06524,-0.0686 -0.04194,-0.0256 -0.101583,-0.0347 -0.05965,-0.01 -0.12861,-0.01 h -0.08388 v -0.13725 h 0.06524 q 0.141657,0 0.225533,-0.0521 0.08481,-0.0529 0.08481,-0.15379 0,-0.0447 -0.02144,-0.0777 -0.02143,-0.0339 -0.05964,-0.0554 -0.04007,-0.0215 -0.08574,-0.0298 -0.04566,-0.008 -0.103447,-0.008 -0.08854,0 -0.188255,0.0281 -0.09972,0.0281 -0.188255,0.0794 h -0.0093 v -0.17281 q 0.06617,-0.0289 0.176139,-0.0529 0.110903,-0.0248 0.21435,-0.0248 0.101583,0 0.178935,0.0165 0.07735,0.0165 0.139794,0.0529 0.0671,0.0397 0.101583,0.0959 0.03448,0.0562 0.03448,0.13146 0,0.10252 -0.08201,0.17941 -0.08108,0.0761 -0.191983,0.0959 v 0.0116 q 0.04473,0.007 0.102515,0.0281 0.05778,0.0207 0.09786,0.0521 z m 1.324308,0.20174 q 0,0.086 -0.03541,0.16454 -0.03542,0.0785 -0.09692,0.13228 -0.0671,0.0579 -0.160296,0.0893 -0.09226,0.0306 -0.21435,0.0306 -0.113698,0 -0.219009,-0.0215 -0.105311,-0.0207 -0.178004,-0.0504 v -0.17446 h 0.01305 q 0.07642,0.043 0.178935,0.0736 0.102515,0.0298 0.201302,0.0298 0.06617,0 0.127678,-0.0165 0.06244,-0.0165 0.110903,-0.0579 0.04101,-0.0356 0.06151,-0.0852 0.02143,-0.0496 0.02143,-0.11493 0,-0.0637 -0.02516,-0.10748 -0.02423,-0.0438 -0.06803,-0.0703 -0.04846,-0.0314 -0.118358,-0.0438 -0.06897,-0.0132 -0.154704,-0.0132 -0.08201,0 -0.158433,0.01 -0.07549,0.01 -0.130474,0.0199 v -0.63416 h 0.835032 v 0.14469 h -0.655164 v 0.32741 q 0.04007,-0.003 0.08201,-0.005 0.04194,-0.002 0.07269,-0.002 0.112767,0 0.197575,0.0174 0.08481,0.0165 0.155636,0.0595 0.07456,0.0455 0.115563,0.11741 0.04101,0.0719 0.04101,0.18024 z"
       id="text347"
       style="font-size:1.6933px;opacity:0;stroke-opacity:0"
       aria-label="LM335" />
    <g
       class="stroked-text"
       id="g394">
      
      <path
         d="M 81.0173,106.2665 H 80.4125"
         id="path348" />
      <path
         d="m 80.4125,106.2665 v -1.27"
         id="path349" />
      <path
         d="m 81.4406,106.2665 v -1.27"
         id="path350" />
      <path
         d="m 81.4406,104.9965 0.4234,0.9072"
         id="path351" />
      <path
         d="m 81.864,105.9037 0.4233,-0.9072"
         id="path352" />
      <path
         d="m 82.2873,104.9965 v 1.27"
         id="path353" />
      <path
         d="m 82.7711,104.9965 h 0.7862"
         id="path354" />
      <path
         d="m 83.5573,104.9965 -0.4234,0.4838"
         id="path355" />
      <path
         d="m 83.1339,105.4803 h 0.1815"
         id="path356" />
      <path
         d="m 83.3154,105.4803 0.1209,0.0605"
         id="path357" />
      <path
         d="m 83.4363,105.5408 0.0605,0.0605"
         id="path358" />
      <path
         d="m 83.4968,105.6013 0.0605,0.1209"
         id="path359" />
      <path
         d="m 83.5573,105.7222 v 0.3024"
         id="path360" />
      <path
         d="m 83.5573,106.0246 -0.0605,0.121"
         id="path361" />
      <path
         d="m 83.4968,106.1456 -0.0605,0.0605"
         id="path362" />
      <path
         d="m 83.4363,106.2061 -0.1209,0.0604"
         id="path363" />
      <path
         d="M 83.3154,106.2665 H 82.9525"
         id="path364" />
      <path
         d="m 82.9525,106.2665 -0.1209,-0.0604"
         id="path365" />
      <path
         d="m 82.8316,106.2061 -0.0605,-0.0605"
         id="path366" />
      <path
         d="m 83.9806,104.9965 h 0.7862"
         id="path367" />
      <path
         d="m 84.7668,104.9965 -0.4234,0.4838"
         id="path368" />
      <path
         d="m 84.3434,105.4803 h 0.1815"
         id="path369" />
      <path
         d="m 84.5249,105.4803 0.1209,0.0605"
         id="path370" />
      <path
         d="m 84.6458,105.5408 0.0605,0.0605"
         id="path371" />
      <path
         d="m 84.7063,105.6013 0.0605,0.1209"
         id="path372" />
      <path
         d="m 84.7668,105.7222 v 0.3024"
         id="path373" />
      <path
         d="m 84.7668,106.0246 -0.0605,0.121"
         id="path374" />
      <path
         d="m 84.7063,106.1456 -0.0605,0.0605"
         id="path375" />
      <path
         d="m 84.6458,106.2061 -0.1209,0.0604"
         id="path376" />
      <path
         d="M 84.5249,106.2665 H 84.162"
         id="path377" />
      <path
         d="m 84.162,106.2665 -0.1209,-0.0604"
         id="path378" />
      <path
         d="m 84.0411,106.2061 -0.0605,-0.0605"
         id="path379" />
      <path
         d="M 85.9158,104.9965 H 85.311"
         id="path380" />
      <path
         d="m 85.311,104.9965 -0.0604,0.6048"
         id="path381" />
      <path
         d="m 85.2506,105.6013 0.0604,-0.0605"
         id="path382" />
      <path
         d="m 85.311,105.5408 0.121,-0.0605"
         id="path383" />
      <path
         d="m 85.432,105.4803 h 0.3024"
         id="path384" />
      <path
         d="m 85.7344,105.4803 0.1209,0.0605"
         id="path385" />
      <path
         d="m 85.8553,105.5408 0.0605,0.0605"
         id="path386" />
      <path
         d="m 85.9158,105.6013 0.0605,0.1209"
         id="path387" />
      <path
         d="m 85.9763,105.7222 v 0.3024"
         id="path388" />
      <path
         d="m 85.9763,106.0246 -0.0605,0.121"
         id="path389" />
      <path
         d="m 85.9158,106.1456 -0.0605,0.0605"
         id="path390" />
      <path
         d="m 85.8553,106.2061 -0.1209,0.0604"
         id="path391" />
      <path
         d="M 85.7344,106.2665 H 85.432"
         id="path392" />
      <path
         d="m 85.432,106.2665 -0.121,-0.0604"
         id="path393" />
      <path
         d="m 85.311,106.2061 -0.0604,-0.0605"
         id="path394" />
    </g>
  </g>
  <g
     style="fill:none;stroke:#006464;stroke-width:0.1524;stroke-linecap:round;stroke-linejoin:round;stroke-opacity:1"
     id="g411"
     transform="translate(-75.501292,-79.2433)">
    <path
       d="m 80.666804,89.535004 h -0.252918 l -0.49009,-0.48947 h -0.274568 v 0.48947 h -0.194855 v -1.231116 h 0.410376 q 0.132856,0 0.221426,0.01488 0.08857,0.01406 0.159427,0.05126 0.07971,0.04217 0.123999,0.106658 0.04527,0.06366 0.04527,0.162054 0,0.133116 -0.07971,0.223238 -0.07971,0.0893 -0.219458,0.13477 z m -0.455646,-0.884683 q 0,-0.05292 -0.02263,-0.09343 -0.02165,-0.04134 -0.07282,-0.06945 -0.04232,-0.02398 -0.10038,-0.03307 -0.05806,-0.0099 -0.136792,-0.0099 h -0.229299 v 0.464665 h 0.196823 q 0.09251,0 0.161395,-0.01323 0.06889,-0.01406 0.11711,-0.05126 0.04429,-0.03473 0.06495,-0.07937 0.02165,-0.04547 0.02165,-0.114926 z m 1.514555,0.884683 h -0.793198 v -0.125675 h 0.305076 V 88.584176 H 80.932515 V 88.47173 q 0.062,0 0.132856,-0.0083 0.07086,-0.0091 0.107268,-0.02563 0.04527,-0.02067 0.07086,-0.05209 0.02657,-0.03224 0.03051,-0.08599 h 0.152538 v 1.109575 h 0.299172 z"
       id="text395"
       style="font-size:1.6933px;text-anchor:middle;opacity:0;stroke-opacity:0"
       aria-label="R1" />
    <g
       class="stroked-text"
       id="g410">
      
      <path
         d="M 80.3872,89.4795 79.9639,88.8748"
         id="path395" />
      <path
         d="m 79.6615,89.4795 v -1.27"
         id="path396" />
      <path
         d="m 79.6615,88.2095 h 0.4838"
         id="path397" />
      <path
         d="m 80.1453,88.2095 0.121,0.0605"
         id="path398" />
      <path
         d="m 80.2663,88.27 0.0605,0.0605"
         id="path399" />
      <path
         d="m 80.3268,88.3305 0.0604,0.1209"
         id="path400" />
      <path
         d="m 80.3872,88.4514 v 0.1815"
         id="path401" />
      <path
         d="m 80.3872,88.6329 -0.0604,0.1209"
         id="path402" />
      <path
         d="m 80.3268,88.7538 -0.0605,0.0605"
         id="path403" />
      <path
         d="m 80.2663,88.8143 -0.121,0.0605"
         id="path404" />
      <path
         d="M 80.1453,88.8748 H 79.6615"
         id="path405" />
      <path
         d="M 81.5968,89.4795 H 80.8711"
         id="path406" />
      <path
         d="m 81.2339,89.4795 v -1.27"
         id="path407" />
      <path
         d="M 81.2339,88.2095 81.113,88.391"
         id="path408" />
      <path
         d="m 81.113,88.391 -0.121,0.1209"
         id="path409" />
      <path
         d="m 80.992,88.5119 -0.1209,0.0605"
         id="path410" />
    </g>
  </g>
  <g
     style="fill:none;stroke:#840000;stroke-width:0.1524;stroke-linecap:round;stroke-linejoin:round;stroke-opacity:1"
     id="g412"
     transform="translate(-75.501292,-79.2433)">
    <path
       d="M 77.47,86.36 V 85.09"
       id="path411" />
    <path
       d="m 77.47,91.44 v 1.27"
       id="path412" />
  </g>
  <g
     style="fill:none;stroke:#006464;stroke-width:0.1524;stroke-linecap:round;stroke-linejoin:round;stroke-opacity:1"
     id="g445"
     transform="translate(-75.501292,-79.2433)">
    <path
       d="m 76.789992,79.413882 -0.48752,1.231115 h -0.237464 l -0.48752,-1.231115 h 0.19069 l 0.420059,1.083116 0.420059,-1.083116 z m 1.237689,1.14182 q -0.04947,0.01984 -0.08995,0.03721 -0.03958,0.01736 -0.10434,0.03638 -0.05487,0.01571 -0.119632,0.02646 -0.06386,0.01158 -0.141219,0.01158 -0.145716,0 -0.265347,-0.03721 -0.118732,-0.03803 -0.206882,-0.118233 -0.08635,-0.07855 -0.134922,-0.199261 -0.04857,-0.12154 -0.04857,-0.281941 0,-0.152132 0.04677,-0.272019 0.04677,-0.119887 0.134922,-0.202568 0.08545,-0.0802 0.205982,-0.122367 0.121431,-0.04217 0.268946,-0.04217 0.107938,0 0.214976,0.02398 0.107938,0.02398 0.239263,0.08433 v 0.1943 h -0.01349 q -0.110637,-0.08516 -0.219474,-0.124021 -0.108838,-0.03886 -0.232966,-0.03886 -0.101642,0 -0.183495,0.03059 -0.08095,0.02976 -0.144817,0.09343 -0.06206,0.06201 -0.09714,0.157093 -0.03418,0.09426 -0.03418,0.218277 0,0.129809 0.03778,0.223238 0.03868,0.09343 0.09894,0.152133 0.06296,0.06118 0.146616,0.09095 0.08455,0.02894 0.178098,0.02894 0.128626,0 0.241061,-0.04051 0.112436,-0.04051 0.210479,-0.121541 h 0.01259 z m 1.286261,0 q -0.04947,0.01984 -0.08995,0.03721 -0.03958,0.01736 -0.10434,0.03638 -0.05487,0.01571 -0.119631,0.02646 -0.06386,0.01158 -0.141219,0.01158 -0.145717,0 -0.265348,-0.03721 -0.118732,-0.03803 -0.206881,-0.118233 -0.08635,-0.07855 -0.134923,-0.199261 -0.04857,-0.12154 -0.04857,-0.281941 0,-0.152132 0.04677,-0.272019 0.04677,-0.119887 0.134923,-0.202568 0.08545,-0.0802 0.205982,-0.122367 0.12143,-0.04217 0.268945,-0.04217 0.107938,0 0.214977,0.02398 0.107938,0.02398 0.239262,0.08433 v 0.1943 h -0.01349 q -0.110636,-0.08516 -0.219474,-0.124021 -0.108837,-0.03886 -0.232966,-0.03886 -0.101642,0 -0.183495,0.03059 -0.08095,0.02976 -0.144817,0.09343 -0.06206,0.06201 -0.09714,0.157093 -0.03418,0.09426 -0.03418,0.218277 0,0.129809 0.03778,0.223238 0.03868,0.09343 0.09894,0.152133 0.06296,0.06118 0.146616,0.09095 0.08455,0.02894 0.178098,0.02894 0.128626,0 0.241062,-0.04051 0.112435,-0.04051 0.210479,-0.121541 h 0.01259 z"
       id="text412"
       style="font-size:1.6933px;text-anchor:middle;opacity:0;stroke-opacity:0"
       aria-label="VCC" />
    <g
       class="stroked-text"
       id="g444">
      
      <path
         d="m 75.7766,79.3195 0.4233,1.27"
         id="path413" />
      <path
         d="m 76.1999,80.5895 0.4234,-1.27"
         id="path414" />
      <path
         d="m 77.7723,80.4686 -0.0604,0.0605"
         id="path415" />
      <path
         d="m 77.7119,80.5291 -0.1815,0.0604"
         id="path416" />
      <path
         d="M 77.5304,80.5895 H 77.4095"
         id="path417" />
      <path
         d="M 77.4095,80.5895 77.2281,80.5291"
         id="path418" />
      <path
         d="m 77.2281,80.5291 -0.121,-0.121"
         id="path419" />
      <path
         d="m 77.1071,80.4081 -0.0605,-0.121"
         id="path420" />
      <path
         d="M 77.0466,80.2871 76.9862,80.0452"
         id="path421" />
      <path
         d="M 76.9862,80.0452 V 79.8638"
         id="path422" />
      <path
         d="m 76.9862,79.8638 0.0604,-0.2419"
         id="path423" />
      <path
         d="M 77.0466,79.6219 77.1071,79.501"
         id="path424" />
      <path
         d="m 77.1071,79.501 0.121,-0.121"
         id="path425" />
      <path
         d="m 77.2281,79.38 0.1814,-0.0605"
         id="path426" />
      <path
         d="m 77.4095,79.3195 h 0.1209"
         id="path427" />
      <path
         d="M 77.5304,79.3195 77.7119,79.38"
         id="path428" />
      <path
         d="m 77.7119,79.38 0.0604,0.0605"
         id="path429" />
      <path
         d="m 79.0423,80.4686 -0.0604,0.0605"
         id="path430" />
      <path
         d="m 78.9819,80.5291 -0.1815,0.0604"
         id="path431" />
      <path
         d="M 78.8004,80.5895 H 78.6795"
         id="path432" />
      <path
         d="M 78.6795,80.5895 78.4981,80.5291"
         id="path433" />
      <path
         d="m 78.4981,80.5291 -0.121,-0.121"
         id="path434" />
      <path
         d="m 78.3771,80.4081 -0.0605,-0.121"
         id="path435" />
      <path
         d="M 78.3166,80.2871 78.2562,80.0452"
         id="path436" />
      <path
         d="M 78.2562,80.0452 V 79.8638"
         id="path437" />
      <path
         d="m 78.2562,79.8638 0.0604,-0.2419"
         id="path438" />
      <path
         d="M 78.3166,79.6219 78.3771,79.501"
         id="path439" />
      <path
         d="m 78.3771,79.501 0.121,-0.121"
         id="path440" />
      <path
         d="m 78.4981,79.38 0.1814,-0.0605"
         id="path441" />
      <path
         d="m 78.6795,79.3195 h 0.1209"
         id="path442" />
      <path
         d="M 78.8004,79.3195 78.9819,79.38"
         id="path443" />
      <path
         d="m 78.9819,79.38 0.0604,0.0605"
         id="path444" />
    </g>
  </g>
  <g
     style="fill:none;stroke:#840000;stroke-width:0.1524;stroke-linecap:round;stroke-linejoin:round;stroke-opacity:1"
     id="g446"
     transform="translate(-75.501292,-79.2433)">
    <path
       d="m 77.47,85.09 v 0"
       id="path445" />
  </g>
  <g
     style="fill:none;stroke:#006464;stroke-width:0.1524;stroke-linecap:round;stroke-linejoin:round;stroke-opacity:1"
     id="g504"
     transform="translate(-75.501292,-79.2433)">
    <path
       d="m 94.077665,100.35058 q 0,0.16784 -0.0829,0.30426 -0.08197,0.13643 -0.218901,0.21167 -0.09501,0.0521 -0.21238,0.0752 -0.116437,0.0232 -0.307393,0.0232 h -0.350242 v -1.231118 h 0.346516 q 0.203065,0 0.322296,0.02646 0.120163,0.02563 0.203066,0.07111 0.141587,0.07855 0.220764,0.209188 0.07918,0.13063 0.07918,0.31005 z m -0.192819,-0.002 q 0,-0.14469 -0.05682,-0.24391 -0.05682,-0.0992 -0.169532,-0.156265 -0.08197,-0.04134 -0.174189,-0.05705 -0.09222,-0.01654 -0.220764,-0.01654 h -0.173258 v 0.950005 h 0.173258 q 0.133203,0 0.231942,-0.0174 0.09967,-0.0174 0.182572,-0.0645 0.103396,-0.0587 0.154628,-0.15462 0.05216,-0.0959 0.05216,-0.23977 z m 1.314336,0.6168 h -0.750783 v -0.12568 h 0.288763 v -0.82515 h -0.288763 v -0.112446 q 0.05868,0 0.125751,-0.0083 0.06707,-0.0091 0.101533,-0.02563 0.04285,-0.02067 0.06707,-0.05209 0.02515,-0.03225 0.02888,-0.08599 h 0.144381 v 1.109576 h 0.283174 z"
       id="text446"
       style="font-size:1.6933px;text-anchor:middle;opacity:0;stroke-opacity:0"
       aria-label="D1" />
    <g
       class="stroked-text"
       id="g462">
      
      <path
         d="m 93.1235,100.9094 v -1.27"
         id="path446" />
      <path
         d="m 93.1235,99.6394 h 0.3024"
         id="path447" />
      <path
         d="m 93.4259,99.6394 0.1814,0.0605"
         id="path448" />
      <path
         d="m 93.6073,99.6999 0.121,0.121"
         id="path449" />
      <path
         d="m 93.7283,99.8209 0.0605,0.1209"
         id="path450" />
      <path
         d="m 93.7888,99.9418 0.0604,0.2419"
         id="path451" />
      <path
         d="m 93.8492,100.1837 v 0.1814"
         id="path452" />
      <path
         d="m 93.8492,100.3651 -0.0604,0.2419"
         id="path453" />
      <path
         d="m 93.7888,100.607 -0.0605,0.121"
         id="path454" />
      <path
         d="m 93.7283,100.728 -0.121,0.121"
         id="path455" />
      <path
         d="m 93.6073,100.849 -0.1814,0.0604"
         id="path456" />
      <path
         d="M 93.4259,100.9094 H 93.1235"
         id="path457" />
      <path
         d="M 95.0588,100.9094 H 94.3331"
         id="path458" />
      <path
         d="m 94.6959,100.9094 v -1.27"
         id="path459" />
      <path
         d="M 94.6959,99.6394 94.575,99.8209"
         id="path460" />
      <path
         d="m 94.575,99.8209 -0.121,0.1209"
         id="path461" />
      <path
         d="m 94.454,99.9418 -0.1209,0.0605"
         id="path462" />
    </g>
    <path
       d="m 93.662874,102.91208 q 0.04362,0.0356 0.07179,0.0893 0.02817,0.0538 0.02817,0.13891 0,0.0843 -0.03362,0.15461 -0.03362,0.0703 -0.09451,0.12237 -0.06816,0.0579 -0.160847,0.086 -0.09178,0.0273 -0.20174,0.0273 -0.112683,0 -0.221732,-0.0248 -0.109049,-0.024 -0.179021,-0.0529 v -0.1728 h 0.01363 q 0.07724,0.0463 0.181747,0.0769 0.104505,0.0306 0.20174,0.0306 0.05725,0 0.121771,-0.0174 0.06452,-0.0174 0.104505,-0.0513 0.0418,-0.0364 0.06179,-0.0802 0.0209,-0.0438 0.0209,-0.1108 0,-0.0661 -0.02363,-0.10913 -0.02272,-0.0438 -0.06361,-0.0686 -0.04089,-0.0256 -0.09905,-0.0347 -0.05816,-0.01 -0.125406,-0.01 h -0.08179 v -0.13725 h 0.06361 q 0.138129,0 0.219915,-0.0521 0.0827,-0.0529 0.0827,-0.15378 0,-0.0447 -0.0209,-0.0777 -0.0209,-0.0339 -0.05816,-0.0554 -0.03908,-0.0215 -0.0836,-0.0298 -0.04453,-0.008 -0.10087,-0.008 -0.08633,0 -0.183565,0.0281 -0.09724,0.0281 -0.183565,0.0794 h -0.0091 v -0.1728 q 0.06452,-0.0289 0.171752,-0.0529 0.10814,-0.0248 0.20901,-0.0248 0.09905,0 0.174478,0.0165 0.07543,0.0165 0.13631,0.0529 0.06543,0.0397 0.09905,0.0959 0.03362,0.0562 0.03362,0.13147 0,0.10252 -0.07997,0.17941 -0.07906,0.0761 -0.1872,0.0959 v 0.0116 q 0.04362,0.007 0.09996,0.0281 0.05634,0.0207 0.09542,0.0521 z m 0.687006,0.59282 h -0.217188 v -0.23564 h 0.217188 z m 1.312219,-0.39935 q 0,0.18769 -0.136311,0.30675 -0.135402,0.11823 -0.332598,0.11823 -0.09996,0 -0.181748,-0.0281 -0.08179,-0.0281 -0.144489,-0.0835 -0.07815,-0.0686 -0.120862,-0.1819 -0.0418,-0.11327 -0.0418,-0.27284 0,-0.16371 0.03817,-0.29021 0.03907,-0.1265 0.123588,-0.22489 0.07997,-0.0934 0.206284,-0.14552 0.126315,-0.0529 0.294431,-0.0529 0.05362,0 0.08996,0.004 0.03635,0.004 0.07361,0.0149 v 0.15792 h -0.0091 q -0.02544,-0.0124 -0.07724,-0.0232 -0.05089,-0.0116 -0.104505,-0.0116 -0.195379,0 -0.311697,0.11162 -0.116319,0.11079 -0.135402,0.30013 0.07633,-0.0422 0.149941,-0.0637 0.07452,-0.0223 0.171752,-0.0223 0.08633,0 0.151759,0.0149 0.06634,0.014 0.135403,0.0579 0.07997,0.0504 0.119953,0.12733 0.04089,0.0769 0.04089,0.18686 z m -0.184474,0.007 q 0,-0.0769 -0.02544,-0.12732 -0.02454,-0.0504 -0.08179,-0.0876 -0.0418,-0.0265 -0.09269,-0.0347 -0.05089,-0.008 -0.106323,-0.008 -0.07724,0 -0.14358,0.0165 -0.06634,0.0165 -0.136311,0.0513 -0.0018,0.0182 -0.0027,0.0356 -9.09e-4,0.0165 -9.09e-4,0.0422 0,0.13063 0.02908,0.2067 0.02999,0.0752 0.08179,0.11906 0.0418,0.0364 0.08996,0.0537 0.04907,0.0165 0.106323,0.0165 0.131767,0 0.207192,-0.0728 0.07543,-0.0736 0.07543,-0.21084 z m 1.533951,-0.83838 -0.492536,1.23112 h -0.239907 l -0.492537,-1.23112 h 0.192653 l 0.424381,1.08312 0.424381,-1.08312 z"
       id="text462"
       style="font-size:1.6933px;text-anchor:middle;opacity:0;stroke-opacity:0"
       aria-label="3.6V" />
    <g
       class="stroked-text"
       id="g503">
      
      <path
         d="m 93.0026,102.1794 h 0.7862"
         id="path463" />
      <path
         d="m 93.7888,102.1794 -0.4234,0.4838"
         id="path464" />
      <path
         d="m 93.3654,102.6632 h 0.1815"
         id="path465" />
      <path
         d="m 93.5469,102.6632 0.1209,0.0605"
         id="path466" />
      <path
         d="m 93.6678,102.7237 0.0605,0.0605"
         id="path467" />
      <path
         d="m 93.7283,102.7842 0.0605,0.1209"
         id="path468" />
      <path
         d="m 93.7888,102.9051 v 0.3024"
         id="path469" />
      <path
         d="m 93.7888,103.2075 -0.0605,0.121"
         id="path470" />
      <path
         d="m 93.7283,103.3285 -0.0605,0.0605"
         id="path471" />
      <path
         d="m 93.6678,103.389 -0.1209,0.0604"
         id="path472" />
      <path
         d="M 93.5469,103.4494 H 93.184"
         id="path473" />
      <path
         d="M 93.184,103.4494 93.0631,103.389"
         id="path474" />
      <path
         d="m 93.0631,103.389 -0.0605,-0.0605"
         id="path475" />
      <path
         d="m 94.333,103.3285 0.0605,0.0605"
         id="path476" />
      <path
         d="m 94.3935,103.389 -0.0605,0.0604"
         id="path477" />
      <path
         d="M 94.333,103.4494 94.2726,103.389"
         id="path478" />
      <path
         d="m 94.2726,103.389 0.0604,-0.0605"
         id="path479" />
      <path
         d="m 94.333,103.3285 v 0.1209"
         id="path480" />
      <path
         d="M 95.4821,102.1794 H 95.2402"
         id="path481" />
      <path
         d="m 95.2402,102.1794 -0.1209,0.0605"
         id="path482" />
      <path
         d="m 95.1193,102.2399 -0.0605,0.0605"
         id="path483" />
      <path
         d="m 95.0588,102.3004 -0.121,0.1814"
         id="path484" />
      <path
         d="m 94.9378,102.4818 -0.0604,0.2419"
         id="path485" />
      <path
         d="m 94.8774,102.7237 v 0.4838"
         id="path486" />
      <path
         d="m 94.8774,103.2075 0.0604,0.121"
         id="path487" />
      <path
         d="m 94.9378,103.3285 0.0605,0.0605"
         id="path488" />
      <path
         d="m 94.9983,103.389 0.121,0.0604"
         id="path489" />
      <path
         d="m 95.1193,103.4494 h 0.2419"
         id="path490" />
      <path
         d="m 95.3612,103.4494 0.1209,-0.0604"
         id="path491" />
      <path
         d="m 95.4821,103.389 0.0605,-0.0605"
         id="path492" />
      <path
         d="m 95.5426,103.3285 0.0605,-0.121"
         id="path493" />
      <path
         d="m 95.6031,103.2075 v -0.3024"
         id="path494" />
      <path
         d="m 95.6031,102.9051 -0.0605,-0.1209"
         id="path495" />
      <path
         d="m 95.5426,102.7842 -0.0605,-0.0605"
         id="path496" />
      <path
         d="m 95.4821,102.7237 -0.1209,-0.0605"
         id="path497" />
      <path
         d="M 95.3612,102.6632 H 95.1193"
         id="path498" />
      <path
         d="m 95.1193,102.6632 -0.121,0.0605"
         id="path499" />
      <path
         d="m 94.9983,102.7237 -0.0605,0.0605"
         id="path500" />
      <path
         d="m 94.9378,102.7842 -0.0604,0.1209"
         id="path501" />
      <path
         d="m 95.9659,102.1794 0.4233,1.27"
         id="path502" />
      <path
         d="m 96.3892,103.4494 0.4234,-1.27"
         id="path503" />
    </g>
  </g>
  <g
     style="fill:none;stroke:#840000;stroke-width:0.1524;stroke-linecap:round;stroke-linejoin:round;stroke-opacity:1"
     id="g505"
     transform="translate(-75.501292,-79.2433)">
    <path
       d="M 90.17,100.33 V 97.79"
       id="path504" />
    <path
       d="m 90.17,102.87 v 2.54"
       id="path505" />
  </g>
  <g
     style="fill:none;stroke:#006464;stroke-width:0.1524;stroke-linecap:round;stroke-linejoin:round;stroke-opacity:1"
     id="g545"
     transform="translate(-75.501292,-79.2433)">
    <path
       d="m 81.083894,102.235 h -0.877902 v -1.23111 h 0.184527 v 1.08559 h 0.693375 z m 1.4203,0 h -0.184527 v -1.06079 l -0.38583,0.7218 h -0.10997 l -0.383034,-0.7218 v 1.06079 h -0.172412 v -1.23111 h 0.251628 l 0.369986,0.68542 0.357871,-0.68542 h 0.256288 z m 1.19663,0 h -0.751156 v -0.12567 h 0.288906 v -0.82516 h -0.288906 v -0.11244 q 0.05871,0 0.125814,-0.008 0.0671,-0.009 0.101583,-0.0256 0.04287,-0.0207 0.0671,-0.0521 0.02516,-0.0323 0.02889,-0.086 h 0.144453 v 1.10958 h 0.283314 z m 1.170536,-0.59282 q 0.04473,0.0356 0.07362,0.0893 0.02889,0.0537 0.02889,0.1389 0,0.0843 -0.03448,0.15461 -0.03448,0.0703 -0.09692,0.12237 -0.0699,0.0579 -0.164956,0.086 -0.09413,0.0273 -0.206894,0.0273 -0.115562,0 -0.227397,-0.0248 -0.111835,-0.024 -0.183595,-0.0529 v -0.1728 h 0.01398 q 0.07922,0.0463 0.186391,0.0769 0.107175,0.0306 0.206894,0.0306 0.05871,0 0.124882,-0.0174 0.06617,-0.0174 0.107175,-0.0513 0.04287,-0.0364 0.06337,-0.0802 0.02143,-0.0438 0.02143,-0.11079 0,-0.0661 -0.02423,-0.10914 -0.0233,-0.0438 -0.06524,-0.0686 -0.04194,-0.0256 -0.101583,-0.0347 -0.05964,-0.01 -0.12861,-0.01 h -0.08388 v -0.13725 h 0.06524 q 0.141658,0 0.225534,-0.0521 0.08481,-0.0529 0.08481,-0.15379 0,-0.0447 -0.02143,-0.0777 -0.02143,-0.0339 -0.05965,-0.0554 -0.04007,-0.0215 -0.08574,-0.0298 -0.04566,-0.008 -0.103447,-0.008 -0.08853,0 -0.188254,0.0281 -0.09972,0.0281 -0.188255,0.0794 h -0.0093 v -0.17281 q 0.06617,-0.0289 0.17614,-0.0529 0.110902,-0.0248 0.214349,-0.0248 0.101583,0 0.178936,0.0165 0.07735,0.0165 0.139793,0.0529 0.0671,0.0397 0.101583,0.0959 0.03448,0.0562 0.03448,0.13146 0,0.10252 -0.08201,0.17942 -0.08108,0.0761 -0.191982,0.0959 v 0.0116 q 0.04473,0.007 0.102515,0.0281 0.05778,0.0207 0.09785,0.0521 z m 1.324308,0.20174 q 0,0.086 -0.03541,0.16454 -0.03542,0.0785 -0.09692,0.13228 -0.0671,0.0579 -0.160296,0.0893 -0.09226,0.0306 -0.21435,0.0306 -0.113698,0 -0.219009,-0.0215 -0.105311,-0.0207 -0.178004,-0.0504 v -0.17446 h 0.01305 q 0.07642,0.043 0.178935,0.0736 0.102515,0.0298 0.201302,0.0298 0.06617,0 0.127678,-0.0165 0.06244,-0.0165 0.110903,-0.0579 0.04101,-0.0356 0.06151,-0.0852 0.02143,-0.0496 0.02143,-0.11493 0,-0.0637 -0.02516,-0.10748 -0.02423,-0.0438 -0.06803,-0.0703 -0.04846,-0.0314 -0.118359,-0.0438 -0.06896,-0.0132 -0.154704,-0.0132 -0.08201,0 -0.158433,0.01 -0.07549,0.01 -0.130473,0.0199 v -0.63416 h 0.835031 v 0.14469 h -0.655164 v 0.32741 q 0.04007,-0.003 0.08201,-0.005 0.04194,-0.002 0.07269,-0.002 0.112767,0 0.197575,0.0174 0.08481,0.0165 0.155636,0.0595 0.07456,0.0455 0.115563,0.11741 0.04101,0.0719 0.04101,0.18024 z"
       id="text505"
       style="font-size:1.6933px;text-anchor:middle;opacity:0;stroke-opacity:0"
       aria-label="LM135" />
    <g
       class="stroked-text"
       id="g544">
      
      <path
         d="M 81.0283,102.1795 H 80.4235"
         id="path506" />
      <path
         d="m 80.4235,102.1795 v -1.27"
         id="path507" />
      <path
         d="m 81.4516,102.1795 v -1.27"
         id="path508" />
      <path
         d="m 81.4516,100.9095 0.4234,0.9072"
         id="path509" />
      <path
         d="m 81.875,101.8167 0.4233,-0.9072"
         id="path510" />
      <path
         d="m 82.2983,100.9095 v 1.27"
         id="path511" />
      <path
         d="M 83.5683,102.1795 H 82.8426"
         id="path512" />
      <path
         d="m 83.2054,102.1795 v -1.27"
         id="path513" />
      <path
         d="m 83.2054,100.9095 -0.1209,0.1815"
         id="path514" />
      <path
         d="m 83.0845,101.091 -0.121,0.1209"
         id="path515" />
      <path
         d="m 82.9635,101.2119 -0.1209,0.0605"
         id="path516" />
      <path
         d="m 83.9916,100.9095 h 0.7862"
         id="path517" />
      <path
         d="m 84.7778,100.9095 -0.4234,0.4838"
         id="path518" />
      <path
         d="m 84.3544,101.3933 h 0.1815"
         id="path519" />
      <path
         d="m 84.5359,101.3933 0.1209,0.0605"
         id="path520" />
      <path
         d="m 84.6568,101.4538 0.0605,0.0605"
         id="path521" />
      <path
         d="m 84.7173,101.5143 0.0605,0.1209"
         id="path522" />
      <path
         d="m 84.7778,101.6352 v 0.3024"
         id="path523" />
      <path
         d="m 84.7778,101.9376 -0.0605,0.121"
         id="path524" />
      <path
         d="m 84.7173,102.0586 -0.0605,0.0605"
         id="path525" />
      <path
         d="m 84.6568,102.1191 -0.1209,0.0604"
         id="path526" />
      <path
         d="M 84.5359,102.1795 H 84.173"
         id="path527" />
      <path
         d="m 84.173,102.1795 -0.1209,-0.0604"
         id="path528" />
      <path
         d="m 84.0521,102.1191 -0.0605,-0.0605"
         id="path529" />
      <path
         d="M 85.9268,100.9095 H 85.322"
         id="path530" />
      <path
         d="m 85.322,100.9095 -0.0604,0.6048"
         id="path531" />
      <path
         d="m 85.2616,101.5143 0.0604,-0.0605"
         id="path532" />
      <path
         d="m 85.322,101.4538 0.121,-0.0605"
         id="path533" />
      <path
         d="m 85.443,101.3933 h 0.3024"
         id="path534" />
      <path
         d="m 85.7454,101.3933 0.1209,0.0605"
         id="path535" />
      <path
         d="m 85.8663,101.4538 0.0605,0.0605"
         id="path536" />
      <path
         d="m 85.9268,101.5143 0.0605,0.1209"
         id="path537" />
      <path
         d="m 85.9873,101.6352 v 0.3024"
         id="path538" />
      <path
         d="m 85.9873,101.9376 -0.0605,0.121"
         id="path539" />
      <path
         d="m 85.9268,102.0586 -0.0605,0.0605"
         id="path540" />
      <path
         d="m 85.8663,102.1191 -0.1209,0.0604"
         id="path541" />
      <path
         d="M 85.7454,102.1795 H 85.443"
         id="path542" />
      <path
         d="m 85.443,102.1795 -0.121,-0.0604"
         id="path543" />
      <path
         d="m 85.322,102.1191 -0.0604,-0.0605"
         id="path544" />
    </g>
  </g>
  <g
     style="fill:none;stroke:#840000;stroke-width:0.1524;stroke-linecap:round;stroke-linejoin:round;stroke-opacity:1"
     id="g546"
     transform="translate(-75.501292,-79.2433)">
    <path
       d="M 77.47,100.33 V 97.79"
       id="path545" />
    <path
       d="m 77.47,102.87 v 2.54"
       id="path546" />
  </g>
  <g
     style="fill:none;stroke:#006464;stroke-width:0.1524;stroke-linecap:round;stroke-linejoin:round;stroke-opacity:1"
     id="g609"
     transform="translate(-75.501292,-79.2433)">
    <path
       d="m 89.510525,110.34825 q -0.105788,0.0463 -0.231519,0.081 -0.124865,0.0339 -0.241925,0.0339 -0.150878,0 -0.276609,-0.0397 -0.125732,-0.0397 -0.214177,-0.11906 -0.08931,-0.0802 -0.137872,-0.20009 -0.04856,-0.12071 -0.04856,-0.28194 0,-0.29517 0.18036,-0.46549 0.181226,-0.17115 0.496856,-0.17115 0.110123,0 0.224582,0.0256 0.115326,0.0248 0.247995,0.0852 v 0.1943 h -0.01561 q -0.02688,-0.0198 -0.07804,-0.0521 -0.05116,-0.0323 -0.100586,-0.0538 -0.05983,-0.0256 -0.136136,-0.0422 -0.07544,-0.0174 -0.171689,-0.0174 -0.216778,0 -0.343377,0.13312 -0.125732,0.13229 -0.125732,0.35883 0,0.23895 0.131802,0.37207 0.131801,0.13228 0.358985,0.13228 0.08324,0 0.165619,-0.0157 0.08324,-0.0157 0.145675,-0.0405 v -0.30178 h -0.345979 v -0.14387 h 0.515933 z m 1.285063,0.091 h -0.212443 l -0.612183,-1.10131 v 1.10131 h -0.160416 v -1.23111 h 0.266204 l 0.558421,1.00539 v -1.00539 h 0.160417 z m 1.434206,-0.61432 q 0,0.16785 -0.07717,0.30427 -0.07631,0.13642 -0.203771,0.21166 -0.08845,0.0521 -0.197702,0.0752 -0.108389,0.0232 -0.286148,0.0232 h -0.326035 v -1.23111 h 0.322567 q 0.189031,0 0.300021,0.0264 0.111858,0.0256 0.189031,0.0711 0.131801,0.0786 0.205506,0.20918 0.07371,0.13064 0.07371,0.31005 z m -0.179493,-0.002 q 0,-0.14469 -0.05289,-0.2439 -0.05289,-0.0992 -0.157815,-0.15627 -0.07631,-0.0413 -0.16215,-0.0571 -0.08584,-0.0165 -0.205506,-0.0165 h -0.161283 v 0.95 h 0.161283 q 0.123997,0 0.215911,-0.0174 0.09278,-0.0174 0.169955,-0.0645 0.09625,-0.0587 0.143941,-0.15461 0.04856,-0.0959 0.04856,-0.23978 z"
       id="text546"
       style="font-size:1.6933px;text-anchor:middle;opacity:0;stroke-opacity:0"
       aria-label="GND" />
    <g
       class="stroked-text"
       id="g577">
      
      <path
         d="m 89.3294,109.1742 -0.121,-0.0605"
         id="path547" />
      <path
         d="M 89.2084,109.1137 H 89.027"
         id="path548" />
      <path
         d="m 89.027,109.1137 -0.1814,0.0605"
         id="path549" />
      <path
         d="m 88.8456,109.1742 -0.121,0.121"
         id="path550" />
      <path
         d="m 88.7246,109.2952 -0.0605,0.1209"
         id="path551" />
      <path
         d="m 88.6641,109.4161 -0.0604,0.2419"
         id="path552" />
      <path
         d="m 88.6037,109.658 v 0.1814"
         id="path553" />
      <path
         d="m 88.6037,109.8394 0.0604,0.2419"
         id="path554" />
      <path
         d="m 88.6641,110.0813 0.0605,0.121"
         id="path555" />
      <path
         d="m 88.7246,110.2023 0.121,0.121"
         id="path556" />
      <path
         d="m 88.8456,110.3233 0.1814,0.0604"
         id="path557" />
      <path
         d="m 89.027,110.3837 h 0.1209"
         id="path558" />
      <path
         d="m 89.1479,110.3837 0.1815,-0.0604"
         id="path559" />
      <path
         d="m 89.3294,110.3233 0.0604,-0.0605"
         id="path560" />
      <path
         d="m 89.3898,110.2628 v -0.4234"
         id="path561" />
      <path
         d="M 89.3898,109.8394 H 89.1479"
         id="path562" />
      <path
         d="m 89.9341,110.3837 v -1.27"
         id="path563" />
      <path
         d="m 89.9341,109.1137 0.7257,1.27"
         id="path564" />
      <path
         d="m 90.6598,110.3837 v -1.27"
         id="path565" />
      <path
         d="m 91.2646,110.3837 v -1.27"
         id="path566" />
      <path
         d="M 91.2646,109.1137 H 91.567"
         id="path567" />
      <path
         d="m 91.567,109.1137 0.1814,0.0605"
         id="path568" />
      <path
         d="m 91.7484,109.1742 0.121,0.121"
         id="path569" />
      <path
         d="m 91.8694,109.2952 0.0605,0.1209"
         id="path570" />
      <path
         d="m 91.9299,109.4161 0.0604,0.2419"
         id="path571" />
      <path
         d="m 91.9903,109.658 v 0.1814"
         id="path572" />
      <path
         d="m 91.9903,109.8394 -0.0604,0.2419"
         id="path573" />
      <path
         d="m 91.9299,110.0813 -0.0605,0.121"
         id="path574" />
      <path
         d="m 91.8694,110.2023 -0.121,0.121"
         id="path575" />
      <path
         d="m 91.7484,110.3233 -0.1814,0.0604"
         id="path576" />
      <path
         d="M 91.567,110.3837 H 91.2646"
         id="path577" />
    </g>
    <path
       d="m 76.810528,110.34825 q -0.105788,0.0463 -0.231519,0.081 -0.124865,0.0339 -0.241925,0.0339 -0.150878,0 -0.276609,-0.0397 -0.125732,-0.0397 -0.214177,-0.11906 -0.08931,-0.0802 -0.137872,-0.20009 -0.04856,-0.12071 -0.04856,-0.28194 0,-0.29517 0.18036,-0.46549 0.181227,-0.17115 0.496856,-0.17115 0.110123,0 0.224582,0.0256 0.115326,0.0248 0.247995,0.0852 v 0.1943 h -0.01561 q -0.02688,-0.0198 -0.07804,-0.0521 -0.05116,-0.0323 -0.100586,-0.0538 -0.05983,-0.0256 -0.136136,-0.0422 -0.07544,-0.0174 -0.171689,-0.0174 -0.216778,0 -0.343377,0.13312 -0.125731,0.13229 -0.125731,0.35883 0,0.23895 0.131801,0.37207 0.131801,0.13228 0.358985,0.13228 0.08324,0 0.165619,-0.0157 0.08324,-0.0157 0.145675,-0.0405 v -0.30178 h -0.345979 v -0.14387 h 0.515933 z m 1.285063,0.091 h -0.212443 l -0.612183,-1.10131 v 1.10131 h -0.160416 v -1.23111 h 0.266204 l 0.558422,1.00539 v -1.00539 h 0.160416 z m 1.434206,-0.61432 q 0,0.16785 -0.07717,0.30427 -0.07631,0.13642 -0.203771,0.21166 -0.08845,0.0521 -0.197702,0.0752 -0.108389,0.0232 -0.286148,0.0232 h -0.326034 v -1.23111 h 0.322566 q 0.189031,0 0.300021,0.0264 0.111858,0.0256 0.189031,0.0711 0.131801,0.0786 0.205506,0.20918 0.07371,0.13064 0.07371,0.31005 z m -0.179493,-0.002 q 0,-0.14469 -0.05289,-0.2439 -0.05289,-0.0992 -0.157815,-0.15627 -0.07631,-0.0413 -0.16215,-0.0571 -0.08584,-0.0165 -0.205506,-0.0165 H 78.61066 v 0.95 h 0.161283 q 0.123997,0 0.215912,-0.0174 0.09278,-0.0174 0.169954,-0.0645 0.09625,-0.0587 0.143941,-0.15461 0.04856,-0.0959 0.04856,-0.23978 z"
       id="text577"
       style="font-size:1.6933px;text-anchor:middle;opacity:0;stroke-opacity:0"
       aria-label="GND" />
    <g
       class="stroked-text"
       id="g608">
      
      <path
         d="m 76.6294,109.1742 -0.121,-0.0605"
         id="path578" />
      <path
         d="M 76.5084,109.1137 H 76.327"
         id="path579" />
      <path
         d="m 76.327,109.1137 -0.1814,0.0605"
         id="path580" />
      <path
         d="m 76.1456,109.1742 -0.121,0.121"
         id="path581" />
      <path
         d="m 76.0246,109.2952 -0.0605,0.1209"
         id="path582" />
      <path
         d="m 75.9641,109.4161 -0.0604,0.2419"
         id="path583" />
      <path
         d="m 75.9037,109.658 v 0.1814"
         id="path584" />
      <path
         d="m 75.9037,109.8394 0.0604,0.2419"
         id="path585" />
      <path
         d="m 75.9641,110.0813 0.0605,0.121"
         id="path586" />
      <path
         d="m 76.0246,110.2023 0.121,0.121"
         id="path587" />
      <path
         d="m 76.1456,110.3233 0.1814,0.0604"
         id="path588" />
      <path
         d="m 76.327,110.3837 h 0.1209"
         id="path589" />
      <path
         d="m 76.4479,110.3837 0.1815,-0.0604"
         id="path590" />
      <path
         d="m 76.6294,110.3233 0.0604,-0.0605"
         id="path591" />
      <path
         d="m 76.6898,110.2628 v -0.4234"
         id="path592" />
      <path
         d="M 76.6898,109.8394 H 76.4479"
         id="path593" />
      <path
         d="m 77.2341,110.3837 v -1.27"
         id="path594" />
      <path
         d="m 77.2341,109.1137 0.7257,1.27"
         id="path595" />
      <path
         d="m 77.9598,110.3837 v -1.27"
         id="path596" />
      <path
         d="m 78.5646,110.3837 v -1.27"
         id="path597" />
      <path
         d="M 78.5646,109.1137 H 78.867"
         id="path598" />
      <path
         d="m 78.867,109.1137 0.1814,0.0605"
         id="path599" />
      <path
         d="m 79.0484,109.1742 0.121,0.121"
         id="path600" />
      <path
         d="m 79.1694,109.2952 0.0605,0.1209"
         id="path601" />
      <path
         d="m 79.2299,109.4161 0.0604,0.2419"
         id="path602" />
      <path
         d="m 79.2903,109.658 v 0.1814"
         id="path603" />
      <path
         d="m 79.2903,109.8394 -0.0604,0.2419"
         id="path604" />
      <path
         d="m 79.2299,110.0813 -0.0605,0.121"
         id="path605" />
      <path
         d="m 79.1694,110.2023 -0.121,0.121"
         id="path606" />
      <path
         d="m 79.0484,110.3233 -0.1814,0.0604"
         id="path607" />
      <path
         d="M 78.867,110.3837 H 78.5646"
         id="path608" />
    </g>
  </g>
  <g
     style="fill:#009600;fill-opacity:1;stroke:#009600;stroke-width:0.1524;stroke-linecap:round;stroke-linejoin:round;stroke-opacity:1"
     id="g610"
     transform="translate(-75.501292,-79.2433)">
    <circle
       cx="77.470001"
       cy="95.25"
       r="0.45719999"
       id="circle609" />
    <circle
       cx="90.169998"
       cy="95.25"
       r="0.45719999"
       id="circle610" />
  </g>
</svg>
