<?xml version="1.0" encoding="UTF-8" standalone="no"?>
<svg
   version="1.1"
   width="13.116531mm"
   height="30.61025mm"
   viewBox="0 0 13.116531 30.61025"
   id="svg387"
   xmlns="http://www.w3.org/2000/svg"
   xmlns:svg="http://www.w3.org/2000/svg">
  
  <title
     id="title1">LMx35</title>
  
  <g
     style="fill:#000000;fill-opacity:1;stroke:#000000;stroke-linecap:round;stroke-linejoin:round;stroke-opacity:1"
     id="g1"
     transform="translate(-75.583666,-79.9291)" />
  <g
     style="fill:none;stroke:#840000;stroke-width:0.1524;stroke-linecap:round;stroke-linejoin:round;stroke-opacity:1"
     id="g11"
     transform="translate(-75.583666,-79.9291)">
    <path
       d="m 76.0219,99.1115 a 0.1794,0.1794 0 0 0 0.2543,-0.1277"
       id="path1" />
    <path
       d="m 76.9092,99.3648 a 0.2492,0.2492 0 0 0 -0.252,-0.254"
       id="path2" />
    <path
       d="m 76.6573,99.6112 a 0.2512,0.2512 0 0 0 0.2539,-0.2464"
       id="path3" />
    <path
       d="m 76.6571,99.1032 a 0.2568,0.2568 0 0 0 -0.2539,0.2616"
       id="path4" />
    <path
       d="m 76.0222,99.1082 a 0.2518,0.2518 0 0 0 -0.254,0.2566"
       id="path5" />
    <path
       d="m 75.7612,99.3649 a 0.2588,0.2588 0 0 0 0.261,0.2539"
       id="path6" />
    <path
       d="m 76.3985,99.3635 a 0.5706,0.5706 0 0 0 0.2587,0.6363"
       id="path7" />
    <path
       style="fill:none;stroke:#840000;stroke-width:0.1524;stroke-linecap:round;stroke-linejoin:round;stroke-opacity:1"
       d="m 76.0476,99.6188 h 0.6096"
       id="path8" />
    <path
       style="fill:none;stroke:#840000;stroke-width:0.254;stroke-linecap:round;stroke-linejoin:round;stroke-opacity:1"
       d="M 78.74,100.33 H 76.2"
       id="path9" />
    <path
       style="fill:none;stroke:#840000;stroke-width:0.1524;stroke-linecap:round;stroke-linejoin:round;stroke-opacity:1"
       d="m 77.47,102.87 v -2.54"
       id="path10" />
    <path
       style="fill:#840000;fill-opacity:1;fill-rule:evenodd;stroke:#840000;stroke-width:0.254;stroke-linecap:round;stroke-linejoin:round;stroke-opacity:1"
       d="m 76.2,102.87 h 2.54 l -1.27,-2.54 z"
       id="path11" />
  </g>
  <g
     style="fill:none;stroke:#840000;stroke-width:0.1524;stroke-linecap:round;stroke-linejoin:round;stroke-opacity:1"
     id="g13"
     transform="translate(-75.583666,-79.9291)">
    <path
       d="M 77.47,100.33 V 97.79"
       id="path12" />
    <path
       d="m 77.47,102.87 v 2.54"
       id="path13" />
  </g>
  <g
     style="fill:none;stroke:#006464;stroke-width:0.1524;stroke-linecap:round;stroke-linejoin:round;stroke-opacity:1"
     id="g53"
     transform="translate(-75.583666,-79.9291)">
    <path
       d="m 81.083894,102.235 h -0.877902 v -1.23111 h 0.184527 v 1.08559 h 0.693375 z m 1.4203,0 h -0.184527 v -1.06079 l -0.38583,0.7218 h -0.10997 l -0.383034,-0.7218 v 1.06079 h -0.172412 v -1.23111 h 0.251628 l 0.369986,0.68542 0.357871,-0.68542 h 0.256288 z m 1.19663,0 h -0.751156 v -0.12567 h 0.288906 v -0.82516 h -0.288906 v -0.11244 q 0.05871,0 0.125814,-0.008 0.0671,-0.009 0.101583,-0.0256 0.04287,-0.0207 0.0671,-0.0521 0.02516,-0.0323 0.02889,-0.086 h 0.144453 v 1.10958 h 0.283314 z m 1.170536,-0.59282 q 0.04473,0.0356 0.07362,0.0893 0.02889,0.0537 0.02889,0.1389 0,0.0843 -0.03448,0.15461 -0.03448,0.0703 -0.09692,0.12237 -0.0699,0.0579 -0.164956,0.086 -0.09413,0.0273 -0.206894,0.0273 -0.115562,0 -0.227397,-0.0248 -0.111835,-0.024 -0.183595,-0.0529 v -0.1728 h 0.01398 q 0.07922,0.0463 0.186391,0.0769 0.107175,0.0306 0.206894,0.0306 0.05871,0 0.124882,-0.0174 0.06617,-0.0174 0.107175,-0.0513 0.04287,-0.0364 0.06337,-0.0802 0.02143,-0.0438 0.02143,-0.11079 0,-0.0661 -0.02423,-0.10914 -0.0233,-0.0438 -0.06524,-0.0686 -0.04194,-0.0256 -0.101583,-0.0347 -0.05964,-0.01 -0.12861,-0.01 h -0.08388 v -0.13725 h 0.06524 q 0.141658,0 0.225534,-0.0521 0.08481,-0.0529 0.08481,-0.15379 0,-0.0447 -0.02143,-0.0777 -0.02143,-0.0339 -0.05965,-0.0554 -0.04007,-0.0215 -0.08574,-0.0298 -0.04566,-0.008 -0.103447,-0.008 -0.08853,0 -0.188254,0.0281 -0.09972,0.0281 -0.188255,0.0794 h -0.0093 v -0.17281 q 0.06617,-0.0289 0.17614,-0.0529 0.110902,-0.0248 0.214349,-0.0248 0.101583,0 0.178936,0.0165 0.07735,0.0165 0.139793,0.0529 0.0671,0.0397 0.101583,0.0959 0.03448,0.0562 0.03448,0.13146 0,0.10252 -0.08201,0.17942 -0.08108,0.0761 -0.191982,0.0959 v 0.0116 q 0.04473,0.007 0.102515,0.0281 0.05778,0.0207 0.09785,0.0521 z m 1.324308,0.20174 q 0,0.086 -0.03541,0.16454 -0.03542,0.0785 -0.09692,0.13228 -0.0671,0.0579 -0.160296,0.0893 -0.09226,0.0306 -0.21435,0.0306 -0.113698,0 -0.219009,-0.0215 -0.105311,-0.0207 -0.178004,-0.0504 v -0.17446 h 0.01305 q 0.07642,0.043 0.178935,0.0736 0.102515,0.0298 0.201302,0.0298 0.06617,0 0.127678,-0.0165 0.06244,-0.0165 0.110903,-0.0579 0.04101,-0.0356 0.06151,-0.0852 0.02143,-0.0496 0.02143,-0.11493 0,-0.0637 -0.02516,-0.10748 -0.02423,-0.0438 -0.06803,-0.0703 -0.04846,-0.0314 -0.118359,-0.0438 -0.06896,-0.0132 -0.154704,-0.0132 -0.08201,0 -0.158433,0.01 -0.07549,0.01 -0.130473,0.0199 v -0.63416 h 0.835031 v 0.14469 h -0.655164 v 0.32741 q 0.04007,-0.003 0.08201,-0.005 0.04194,-0.002 0.07269,-0.002 0.112767,0 0.197575,0.0174 0.08481,0.0165 0.155636,0.0595 0.07456,0.0455 0.115563,0.11741 0.04101,0.0719 0.04101,0.18024 z"
       id="text13"
       style="font-size:1.6933px;text-anchor:middle;opacity:0;stroke-opacity:0"
       aria-label="LM135" />
    <g
       class="stroked-text"
       id="g52">
      
      <path
         d="M 81.0283,102.1795 H 80.4235"
         id="path14" />
      <path
         d="m 80.4235,102.1795 v -1.27"
         id="path15" />
      <path
         d="m 81.4516,102.1795 v -1.27"
         id="path16" />
      <path
         d="m 81.4516,100.9095 0.4234,0.9072"
         id="path17" />
      <path
         d="m 81.875,101.8167 0.4233,-0.9072"
         id="path18" />
      <path
         d="m 82.2983,100.9095 v 1.27"
         id="path19" />
      <path
         d="M 83.5683,102.1795 H 82.8426"
         id="path20" />
      <path
         d="m 83.2054,102.1795 v -1.27"
         id="path21" />
      <path
         d="m 83.2054,100.9095 -0.1209,0.1815"
         id="path22" />
      <path
         d="m 83.0845,101.091 -0.121,0.1209"
         id="path23" />
      <path
         d="m 82.9635,101.2119 -0.1209,0.0605"
         id="path24" />
      <path
         d="m 83.9916,100.9095 h 0.7862"
         id="path25" />
      <path
         d="m 84.7778,100.9095 -0.4234,0.4838"
         id="path26" />
      <path
         d="m 84.3544,101.3933 h 0.1815"
         id="path27" />
      <path
         d="m 84.5359,101.3933 0.1209,0.0605"
         id="path28" />
      <path
         d="m 84.6568,101.4538 0.0605,0.0605"
         id="path29" />
      <path
         d="m 84.7173,101.5143 0.0605,0.1209"
         id="path30" />
      <path
         d="m 84.7778,101.6352 v 0.3024"
         id="path31" />
      <path
         d="m 84.7778,101.9376 -0.0605,0.121"
         id="path32" />
      <path
         d="m 84.7173,102.0586 -0.0605,0.0605"
         id="path33" />
      <path
         d="m 84.6568,102.1191 -0.1209,0.0604"
         id="path34" />
      <path
         d="M 84.5359,102.1795 H 84.173"
         id="path35" />
      <path
         d="m 84.173,102.1795 -0.1209,-0.0604"
         id="path36" />
      <path
         d="m 84.0521,102.1191 -0.0605,-0.0605"
         id="path37" />
      <path
         d="M 85.9268,100.9095 H 85.322"
         id="path38" />
      <path
         d="m 85.322,100.9095 -0.0604,0.6048"
         id="path39" />
      <path
         d="m 85.2616,101.5143 0.0604,-0.0605"
         id="path40" />
      <path
         d="m 85.322,101.4538 0.121,-0.0605"
         id="path41" />
      <path
         d="m 85.443,101.3933 h 0.3024"
         id="path42" />
      <path
         d="m 85.7454,101.3933 0.1209,0.0605"
         id="path43" />
      <path
         d="m 85.8663,101.4538 0.0605,0.0605"
         id="path44" />
      <path
         d="m 85.9268,101.5143 0.0605,0.1209"
         id="path45" />
      <path
         d="m 85.9873,101.6352 v 0.3024"
         id="path46" />
      <path
         d="m 85.9873,101.9376 -0.0605,0.121"
         id="path47" />
      <path
         d="m 85.9268,102.0586 -0.0605,0.0605"
         id="path48" />
      <path
         d="m 85.8663,102.1191 -0.1209,0.0604"
         id="path49" />
      <path
         d="M 85.7454,102.1795 H 85.443"
         id="path50" />
      <path
         d="m 85.443,102.1795 -0.121,-0.0604"
         id="path51" />
      <path
         d="m 85.322,102.1191 -0.0604,-0.0605"
         id="path52" />
    </g>
    <path
       style="fill:none;stroke:#840000;stroke-width:0.1524;stroke-linecap:round;stroke-linejoin:round;stroke-opacity:1"
       d="m 77.47,105.41 v 1.27 h 1.27 l -1.27,1.27 -1.27,-1.27 h 1.27"
       id="path53" />
  </g>
  <g
     style="fill:none;stroke:#006464;stroke-width:0.1524;stroke-linecap:round;stroke-linejoin:round;stroke-opacity:1"
     id="g85"
     transform="translate(-75.583666,-79.9291)">
    <path
       d="m 76.810528,110.34825 q -0.105788,0.0463 -0.231519,0.081 -0.124865,0.0339 -0.241925,0.0339 -0.150878,0 -0.276609,-0.0397 -0.125732,-0.0397 -0.214177,-0.11906 -0.08931,-0.0802 -0.137872,-0.20009 -0.04856,-0.12071 -0.04856,-0.28194 0,-0.29517 0.18036,-0.46549 0.181227,-0.17115 0.496856,-0.17115 0.110123,0 0.224582,0.0256 0.115326,0.0248 0.247995,0.0852 v 0.1943 h -0.01561 q -0.02688,-0.0198 -0.07804,-0.0521 -0.05116,-0.0323 -0.100586,-0.0538 -0.05983,-0.0256 -0.136136,-0.0422 -0.07544,-0.0174 -0.171689,-0.0174 -0.216778,0 -0.343377,0.13312 -0.125731,0.13229 -0.125731,0.35883 0,0.23895 0.131801,0.37207 0.131801,0.13228 0.358985,0.13228 0.08324,0 0.165619,-0.0157 0.08324,-0.0157 0.145675,-0.0405 v -0.30178 h -0.345979 v -0.14387 h 0.515933 z m 1.285063,0.091 h -0.212443 l -0.612183,-1.10131 v 1.10131 h -0.160416 v -1.23111 h 0.266204 l 0.558422,1.00539 v -1.00539 h 0.160416 z m 1.434206,-0.61432 q 0,0.16785 -0.07717,0.30427 -0.07631,0.13642 -0.203771,0.21166 -0.08845,0.0521 -0.197702,0.0752 -0.108389,0.0232 -0.286148,0.0232 h -0.326034 v -1.23111 h 0.322566 q 0.189031,0 0.300021,0.0264 0.111858,0.0256 0.189031,0.0711 0.131801,0.0786 0.205506,0.20918 0.07371,0.13064 0.07371,0.31005 z m -0.179493,-0.002 q 0,-0.14469 -0.05289,-0.2439 -0.05289,-0.0992 -0.157815,-0.15627 -0.07631,-0.0413 -0.16215,-0.0571 -0.08584,-0.0165 -0.205506,-0.0165 H 78.61066 v 0.95 h 0.161283 q 0.123997,0 0.215912,-0.0174 0.09278,-0.0174 0.169954,-0.0645 0.09625,-0.0587 0.143941,-0.15461 0.04856,-0.0959 0.04856,-0.23978 z"
       id="text53"
       style="font-size:1.6933px;text-anchor:middle;opacity:0;stroke-opacity:0"
       aria-label="GND" />
    <g
       class="stroked-text"
       id="g84">
      
      <path
         d="m 76.6294,109.1742 -0.121,-0.0605"
         id="path54" />
      <path
         d="M 76.5084,109.1137 H 76.327"
         id="path55" />
      <path
         d="m 76.327,109.1137 -0.1814,0.0605"
         id="path56" />
      <path
         d="m 76.1456,109.1742 -0.121,0.121"
         id="path57" />
      <path
         d="m 76.0246,109.2952 -0.0605,0.1209"
         id="path58" />
      <path
         d="m 75.9641,109.4161 -0.0604,0.2419"
         id="path59" />
      <path
         d="m 75.9037,109.658 v 0.1814"
         id="path60" />
      <path
         d="m 75.9037,109.8394 0.0604,0.2419"
         id="path61" />
      <path
         d="m 75.9641,110.0813 0.0605,0.121"
         id="path62" />
      <path
         d="m 76.0246,110.2023 0.121,0.121"
         id="path63" />
      <path
         d="m 76.1456,110.3233 0.1814,0.0604"
         id="path64" />
      <path
         d="m 76.327,110.3837 h 0.1209"
         id="path65" />
      <path
         d="m 76.4479,110.3837 0.1815,-0.0604"
         id="path66" />
      <path
         d="m 76.6294,110.3233 0.0604,-0.0605"
         id="path67" />
      <path
         d="m 76.6898,110.2628 v -0.4234"
         id="path68" />
      <path
         d="M 76.6898,109.8394 H 76.4479"
         id="path69" />
      <path
         d="m 77.2341,110.3837 v -1.27"
         id="path70" />
      <path
         d="m 77.2341,109.1137 0.7257,1.27"
         id="path71" />
      <path
         d="m 77.9598,110.3837 v -1.27"
         id="path72" />
      <path
         d="m 78.5646,110.3837 v -1.27"
         id="path73" />
      <path
         d="M 78.5646,109.1137 H 78.867"
         id="path74" />
      <path
         d="m 78.867,109.1137 0.1814,0.0605"
         id="path75" />
      <path
         d="m 79.0484,109.1742 0.121,0.121"
         id="path76" />
      <path
         d="m 79.1694,109.2952 0.0605,0.1209"
         id="path77" />
      <path
         d="m 79.2299,109.4161 0.0604,0.2419"
         id="path78" />
      <path
         d="m 79.2903,109.658 v 0.1814"
         id="path79" />
      <path
         d="m 79.2903,109.8394 -0.0604,0.2419"
         id="path80" />
      <path
         d="m 79.2299,110.0813 -0.0605,0.121"
         id="path81" />
      <path
         d="m 79.1694,110.2023 -0.121,0.121"
         id="path82" />
      <path
         d="m 79.0484,110.3233 -0.1814,0.0604"
         id="path83" />
      <path
         d="M 78.867,110.3837 H 78.5646"
         id="path84" />
    </g>
  </g>
  <g
     style="fill:none;stroke:#840000;stroke-width:0.254;stroke-linecap:round;stroke-linejoin:round;stroke-opacity:1"
     id="g86"
     transform="translate(-75.583666,-79.9291)">
    <rect
       x="76.454002"
       y="86.360001"
       width="2.0320001"
       height="5.0799999"
       rx="0.000000"
       id="rect85" />
  </g>
  <g
     style="fill:none;stroke:#840000;stroke-width:0.1524;stroke-linecap:round;stroke-linejoin:round;stroke-opacity:1"
     id="g87"
     transform="translate(-75.583666,-79.9291)">
    <path
       d="M 77.47,86.36 V 85.09"
       id="path86" />
    <path
       d="m 77.47,91.44 v 1.27"
       id="path87" />
  </g>
  <g
     style="fill:none;stroke:#006464;stroke-width:0.1524;stroke-linecap:round;stroke-linejoin:round;stroke-opacity:1"
     id="g106"
     transform="translate(-75.583666,-79.9291)">
    <path
       d="m 80.666804,89.535004 h -0.252918 l -0.49009,-0.48947 h -0.274568 v 0.48947 h -0.194855 v -1.231116 h 0.410376 q 0.132856,0 0.221426,0.01488 0.08857,0.01406 0.159427,0.05126 0.07971,0.04217 0.123999,0.106658 0.04527,0.06366 0.04527,0.162054 0,0.133116 -0.07971,0.223238 -0.07971,0.0893 -0.219458,0.13477 z m -0.455646,-0.884683 q 0,-0.05292 -0.02263,-0.09343 -0.02165,-0.04134 -0.07282,-0.06945 -0.04232,-0.02398 -0.10038,-0.03307 -0.05806,-0.0099 -0.136792,-0.0099 h -0.229299 v 0.464665 h 0.196823 q 0.09251,0 0.161395,-0.01323 0.06889,-0.01406 0.11711,-0.05126 0.04429,-0.03473 0.06495,-0.07937 0.02165,-0.04547 0.02165,-0.114926 z m 1.514555,0.884683 h -0.793198 v -0.125675 h 0.305076 V 88.584176 H 80.932515 V 88.47173 q 0.062,0 0.132856,-0.0083 0.07086,-0.0091 0.107268,-0.02563 0.04527,-0.02067 0.07086,-0.05209 0.02657,-0.03224 0.03051,-0.08599 h 0.152538 v 1.109575 h 0.299172 z"
       id="text87"
       style="font-size:1.6933px;text-anchor:middle;opacity:0;stroke-opacity:0"
       aria-label="R1" />
    <g
       class="stroked-text"
       id="g103">
      
      <path
         d="M 80.3872,89.4795 79.9639,88.8748"
         id="path88" />
      <path
         d="m 79.6615,89.4795 v -1.27"
         id="path89" />
      <path
         d="m 79.6615,88.2095 h 0.4838"
         id="path90" />
      <path
         d="m 80.1453,88.2095 0.121,0.0605"
         id="path91" />
      <path
         d="m 80.2663,88.27 0.0605,0.0605"
         id="path92" />
      <path
         d="m 80.3268,88.3305 0.0604,0.1209"
         id="path93" />
      <path
         d="m 80.3872,88.4514 v 0.1815"
         id="path94" />
      <path
         d="m 80.3872,88.6329 -0.0604,0.1209"
         id="path95" />
      <path
         d="m 80.3268,88.7538 -0.0605,0.0605"
         id="path96" />
      <path
         d="m 80.2663,88.8143 -0.121,0.0605"
         id="path97" />
      <path
         d="M 80.1453,88.8748 H 79.6615"
         id="path98" />
      <path
         d="M 81.5968,89.4795 H 80.8711"
         id="path99" />
      <path
         d="m 81.2339,89.4795 v -1.27"
         id="path100" />
      <path
         d="M 81.2339,88.2095 81.113,88.391"
         id="path101" />
      <path
         d="m 81.113,88.391 -0.121,0.1209"
         id="path102" />
      <path
         d="m 80.992,88.5119 -0.1209,0.0605"
         id="path103" />
    </g>
    <path
       style="fill:none;stroke:#840000;stroke-width:0.1524;stroke-linecap:round;stroke-linejoin:round;stroke-opacity:1"
       d="M 76.708,83.82 77.47,82.55"
       id="path104" />
    <path
       style="fill:none;stroke:#840000;stroke-width:0.1524;stroke-linecap:round;stroke-linejoin:round;stroke-opacity:1"
       d="m 77.47,82.55 0.762,1.27"
       id="path105" />
    <path
       style="fill:none;stroke:#840000;stroke-width:0.1524;stroke-linecap:round;stroke-linejoin:round;stroke-opacity:1"
       d="M 77.47,85.09 V 82.55"
       id="path106" />
  </g>
  <g
     style="fill:none;stroke:#006464;stroke-width:0.1524;stroke-linecap:round;stroke-linejoin:round;stroke-opacity:1"
     id="g139"
     transform="translate(-75.583666,-79.9291)">
    <path
       d="m 77.170988,80.099688 -0.48752,1.231115 h -0.237463 l -0.487521,-1.231115 h 0.190691 l 0.420059,1.083117 0.420059,-1.083117 z m 1.23769,1.14182 q -0.04947,0.01984 -0.08995,0.03721 -0.03958,0.01736 -0.10434,0.03638 -0.05487,0.01571 -0.119631,0.02646 -0.06386,0.01158 -0.141219,0.01158 -0.145716,0 -0.265348,-0.03721 -0.118731,-0.03803 -0.206881,-0.118233 -0.08635,-0.07855 -0.134922,-0.19926 -0.04857,-0.121541 -0.04857,-0.281941 0,-0.152133 0.04677,-0.27202 0.04677,-0.119887 0.134922,-0.202567 0.08545,-0.0802 0.205982,-0.122368 0.12143,-0.04217 0.268946,-0.04217 0.107938,0 0.214976,0.02398 0.107938,0.02398 0.239263,0.08433 v 0.194299 h -0.01349 q -0.110636,-0.08516 -0.219474,-0.124021 -0.108837,-0.03886 -0.232966,-0.03886 -0.101641,0 -0.183494,0.03059 -0.08095,0.02976 -0.144817,0.09343 -0.06207,0.06201 -0.09714,0.157094 -0.03418,0.09426 -0.03418,0.218277 0,0.129808 0.03778,0.223237 0.03868,0.09343 0.09894,0.152133 0.06296,0.06118 0.146615,0.09095 0.08455,0.02894 0.178098,0.02894 0.128626,0 0.241062,-0.04051 0.112435,-0.04051 0.210479,-0.12154 h 0.01259 z m 1.286261,0 q -0.04947,0.01984 -0.08995,0.03721 -0.03958,0.01736 -0.10434,0.03638 -0.05487,0.01571 -0.119632,0.02646 -0.06386,0.01158 -0.141219,0.01158 -0.145716,0 -0.265347,-0.03721 -0.118732,-0.03803 -0.206881,-0.118233 -0.08635,-0.07855 -0.134923,-0.19926 -0.04857,-0.121541 -0.04857,-0.281941 0,-0.152133 0.04677,-0.27202 0.04677,-0.119887 0.134923,-0.202567 0.08545,-0.0802 0.205981,-0.122368 0.121431,-0.04217 0.268946,-0.04217 0.107938,0 0.214977,0.02398 0.107938,0.02398 0.239262,0.08433 v 0.194299 h -0.01349 q -0.110637,-0.08516 -0.219474,-0.124021 -0.108838,-0.03886 -0.232966,-0.03886 -0.101642,0 -0.183495,0.03059 -0.08095,0.02976 -0.144817,0.09343 -0.06206,0.06201 -0.09714,0.157094 -0.03418,0.09426 -0.03418,0.218277 0,0.129808 0.03778,0.223237 0.03868,0.09343 0.09894,0.152133 0.06296,0.06118 0.146616,0.09095 0.08455,0.02894 0.178098,0.02894 0.128626,0 0.241061,-0.04051 0.112436,-0.04051 0.210479,-0.12154 h 0.01259 z"
       id="text106"
       style="font-size:1.6933px;text-anchor:middle;opacity:0;stroke-opacity:0"
       aria-label="VCC" />
    <g
       class="stroked-text"
       id="g138">
      
      <path
         d="m 76.1576,80.0053 0.4233,1.27"
         id="path107" />
      <path
         d="m 76.5809,81.2753 0.4234,-1.27"
         id="path108" />
      <path
         d="m 78.1533,81.1544 -0.0604,0.0605"
         id="path109" />
      <path
         d="m 78.0929,81.2149 -0.1815,0.0604"
         id="path110" />
      <path
         d="M 77.9114,81.2753 H 77.7905"
         id="path111" />
      <path
         d="M 77.7905,81.2753 77.6091,81.2149"
         id="path112" />
      <path
         d="m 77.6091,81.2149 -0.121,-0.121"
         id="path113" />
      <path
         d="m 77.4881,81.0939 -0.0605,-0.121"
         id="path114" />
      <path
         d="M 77.4276,80.9729 77.3672,80.731"
         id="path115" />
      <path
         d="M 77.3672,80.731 V 80.5496"
         id="path116" />
      <path
         d="m 77.3672,80.5496 0.0604,-0.2419"
         id="path117" />
      <path
         d="m 77.4276,80.3077 0.0605,-0.1209"
         id="path118" />
      <path
         d="m 77.4881,80.1868 0.121,-0.121"
         id="path119" />
      <path
         d="m 77.6091,80.0658 0.1814,-0.0605"
         id="path120" />
      <path
         d="m 77.7905,80.0053 h 0.1209"
         id="path121" />
      <path
         d="m 77.9114,80.0053 0.1815,0.0605"
         id="path122" />
      <path
         d="m 78.0929,80.0658 0.0604,0.0605"
         id="path123" />
      <path
         d="m 79.4233,81.1544 -0.0604,0.0605"
         id="path124" />
      <path
         d="m 79.3629,81.2149 -0.1815,0.0604"
         id="path125" />
      <path
         d="M 79.1814,81.2753 H 79.0605"
         id="path126" />
      <path
         d="M 79.0605,81.2753 78.8791,81.2149"
         id="path127" />
      <path
         d="m 78.8791,81.2149 -0.121,-0.121"
         id="path128" />
      <path
         d="m 78.7581,81.0939 -0.0605,-0.121"
         id="path129" />
      <path
         d="M 78.6976,80.9729 78.6372,80.731"
         id="path130" />
      <path
         d="M 78.6372,80.731 V 80.5496"
         id="path131" />
      <path
         d="m 78.6372,80.5496 0.0604,-0.2419"
         id="path132" />
      <path
         d="m 78.6976,80.3077 0.0605,-0.1209"
         id="path133" />
      <path
         d="m 78.7581,80.1868 0.121,-0.121"
         id="path134" />
      <path
         d="m 78.8791,80.0658 0.1814,-0.0605"
         id="path135" />
      <path
         d="m 79.0605,80.0053 h 0.1209"
         id="path136" />
      <path
         d="m 79.1814,80.0053 0.1815,0.0605"
         id="path137" />
      <path
         d="m 79.3629,80.0658 0.0604,0.0605"
         id="path138" />
    </g>
  </g>
  <g
     style="fill:none;stroke:#840000;stroke-width:0.1524;stroke-linecap:round;stroke-linejoin:round;stroke-opacity:1"
     id="g169"
     transform="translate(-75.583666,-79.9291)">
    <path
       d="M 84.220694,95.9758 H 84.037275 L 83.910359,95.632675 H 83.350541 L 83.223626,95.9758 H 83.0489 l 0.471151,-1.231115 h 0.229491 z m -0.363361,-0.483682 -0.226883,-0.604396 -0.227752,0.604396 z m 1.653377,-0.130636 q 0,0.167842 -0.07737,0.304265 -0.0765,0.136423 -0.204281,0.211663 -0.08867,0.05209 -0.198197,0.07524 -0.10866,0.02315 -0.286863,0.02315 h -0.326851 v -1.231115 h 0.323374 q 0.189503,0 0.300772,0.02646 0.112137,0.02563 0.189503,0.07111 0.132131,0.07855 0.206021,0.209182 0.07389,0.130635 0.07389,0.310052 z m -0.179942,-0.0025 q 0,-0.144691 -0.05303,-0.243908 -0.05303,-0.09922 -0.15821,-0.156267 -0.0765,-0.04134 -0.162556,-0.05705 -0.08606,-0.01654 -0.20602,-0.01654 H 84.58927 v 0.95 h 0.161686 q 0.124308,0 0.216452,-0.01736 0.09301,-0.01736 0.170379,-0.06449 0.09649,-0.0587 0.144301,-0.154613 0.04868,-0.09591 0.04868,-0.239774 z m 1.457788,0.527502 q -0.04781,0.01984 -0.08693,0.03721 -0.03825,0.01736 -0.100836,0.03638 -0.05303,0.01571 -0.115615,0.02646 -0.06172,0.01158 -0.136477,0.01158 -0.140824,0 -0.256439,-0.03721 -0.114745,-0.03803 -0.199935,-0.118233 -0.08345,-0.07855 -0.130393,-0.199261 -0.04694,-0.12154 -0.04694,-0.281941 0,-0.152132 0.0452,-0.272019 0.0452,-0.119887 0.130392,-0.202568 0.08258,-0.0802 0.199066,-0.122367 0.117353,-0.04217 0.259916,-0.04217 0.104314,0 0.207758,0.02398 0.104314,0.02398 0.23123,0.08433 v 0.1943 h -0.01304 q -0.106922,-0.08516 -0.212106,-0.124021 -0.105183,-0.03886 -0.225144,-0.03886 -0.09823,0 -0.177334,0.03059 -0.07824,0.02976 -0.139954,0.09343 -0.05998,0.06201 -0.09388,0.157093 -0.03303,0.09426 -0.03303,0.218277 0,0.129809 0.03651,0.223238 0.03738,0.09343 0.09562,0.152132 0.06085,0.06118 0.141693,0.09095 0.08171,0.02894 0.172118,0.02894 0.124307,0 0.232968,-0.04051 0.10866,-0.04051 0.203412,-0.121541 h 0.01217 z"
       id="text139"
       style="font-size:1.6933px;opacity:0;stroke-opacity:0"
       aria-label="ADC" />
    <g
       class="stroked-text"
       id="g168">
      
      <path
         d="m 83.3684,95.5575 h 0.6047"
         id="path139" />
      <path
         d="m 83.2474,95.9203 0.4233,-1.27"
         id="path140" />
      <path
         d="m 83.6707,94.6503 0.4234,1.27"
         id="path141" />
      <path
         d="m 84.5174,95.9203 v -1.27"
         id="path142" />
      <path
         d="m 84.5174,94.6503 h 0.3024"
         id="path143" />
      <path
         d="m 84.8198,94.6503 0.1814,0.0605"
         id="path144" />
      <path
         d="m 85.0012,94.7108 0.121,0.121"
         id="path145" />
      <path
         d="m 85.1222,94.8318 0.0605,0.1209"
         id="path146" />
      <path
         d="m 85.1827,94.9527 0.0604,0.2419"
         id="path147" />
      <path
         d="M 85.2431,95.1946 V 95.376"
         id="path148" />
      <path
         d="m 85.2431,95.376 -0.0604,0.2419"
         id="path149" />
      <path
         d="m 85.1827,95.6179 -0.0605,0.121"
         id="path150" />
      <path
         d="m 85.1222,95.7389 -0.121,0.121"
         id="path151" />
      <path
         d="m 85.0012,95.8599 -0.1814,0.0604"
         id="path152" />
      <path
         d="M 84.8198,95.9203 H 84.5174"
         id="path153" />
      <path
         d="m 86.5131,95.7994 -0.0604,0.0605"
         id="path154" />
      <path
         d="m 86.4527,95.8599 -0.1815,0.0604"
         id="path155" />
      <path
         d="M 86.2712,95.9203 H 86.1503"
         id="path156" />
      <path
         d="M 86.1503,95.9203 85.9689,95.8599"
         id="path157" />
      <path
         d="m 85.9689,95.8599 -0.121,-0.121"
         id="path158" />
      <path
         d="m 85.8479,95.7389 -0.0605,-0.121"
         id="path159" />
      <path
         d="M 85.7874,95.6179 85.727,95.376"
         id="path160" />
      <path
         d="M 85.727,95.376 V 95.1946"
         id="path161" />
      <path
         d="m 85.727,95.1946 0.0604,-0.2419"
         id="path162" />
      <path
         d="m 85.7874,94.9527 0.0605,-0.1209"
         id="path163" />
      <path
         d="m 85.8479,94.8318 0.121,-0.121"
         id="path164" />
      <path
         d="m 85.9689,94.7108 0.1814,-0.0605"
         id="path165" />
      <path
         d="m 86.1503,94.6503 h 0.1209"
         id="path166" />
      <path
         d="m 86.2712,94.6503 0.1815,0.0605"
         id="path167" />
      <path
         d="m 86.4527,94.7108 0.0604,0.0605"
         id="path168" />
    </g>
    <path
       style="fill:none;stroke:#840000;stroke-width:0.1524;stroke-linecap:round;stroke-linejoin:round;stroke-opacity:1"
       d="m 82.55,95.25 v 1.2704 h 4.9627 L 88.624,95.25 87.5127,93.9796 H 82.55 Z"
       id="path169" />
  </g>
  <g
     style="fill:none;stroke:#009600;stroke-width:0.1524;stroke-linecap:round;stroke-linejoin:round;stroke-opacity:1"
     id="g172"
     transform="translate(-75.583666,-79.9291)">
    <path
       d="m 77.47,95.25 v 2.54"
       id="path170" />
    <path
       d="m 77.47,92.71 v 2.54"
       id="path171" />
    <path
       d="M 82.55,95.25 H 77.47"
       id="path172" />
  </g>
  <g
     style="fill:none;stroke:#0000c2;stroke-width:0.1524;stroke-linecap:round;stroke-linejoin:round;stroke-opacity:1"
     id="g264"
     transform="translate(-75.583666,-79.9291)">
    <path
       d="m 81.074295,104.3854 h -0.877902 v -1.23112 h 0.184527 v 1.0856 h 0.693375 z m 1.4203,0 h -0.184527 v -1.06079 l -0.38583,0.7218 h -0.109971 l -0.383033,-0.7218 v 1.06079 h -0.172412 v -1.23112 h 0.251628 l 0.369986,0.68543 0.357871,-0.68543 h 0.256288 z m 1.275846,0 H 82.83103 v -0.1728 q 0.09786,-0.0744 0.195711,-0.14883 0.09879,-0.0744 0.183595,-0.148 0.178936,-0.15378 0.245104,-0.24391 0.06617,-0.0909 0.06617,-0.19595 0,-0.0959 -0.07176,-0.14965 -0.07083,-0.0546 -0.198507,-0.0546 -0.08481,0 -0.183595,0.0265 -0.09879,0.0265 -0.192915,0.081 h -0.0093 v -0.17363 q 0.06617,-0.0289 0.176139,-0.0529 0.110903,-0.024 0.21435,-0.024 0.213418,0 0.334572,0.0918 0.121154,0.091 0.121154,0.24721 0,0.0703 -0.0205,0.13147 -0.01957,0.0603 -0.05871,0.11492 -0.03635,0.0513 -0.08574,0.10087 -0.04846,0.0496 -0.118358,0.10997 -0.09972,0.0868 -0.205962,0.16867 -0.106243,0.081 -0.198507,0.15047 h 0.746496 z m 1.09132,-0.59282 q 0.04473,0.0356 0.07362,0.0893 0.02889,0.0537 0.02889,0.13891 0,0.0843 -0.03448,0.15461 -0.03448,0.0703 -0.09692,0.12237 -0.0699,0.0579 -0.164956,0.086 -0.09413,0.0273 -0.206894,0.0273 -0.115562,0 -0.227397,-0.0248 -0.111835,-0.024 -0.183595,-0.0529 v -0.1728 h 0.01398 q 0.07922,0.0463 0.186391,0.0769 0.107175,0.0306 0.206894,0.0306 0.05871,0 0.124882,-0.0174 0.06617,-0.0174 0.107175,-0.0513 0.04287,-0.0364 0.06337,-0.0802 0.02143,-0.0438 0.02143,-0.11079 0,-0.0662 -0.02423,-0.10914 -0.0233,-0.0438 -0.06524,-0.0686 -0.04194,-0.0256 -0.101583,-0.0347 -0.05965,-0.01 -0.12861,-0.01 h -0.08388 v -0.13725 h 0.06524 q 0.141657,0 0.225533,-0.0521 0.08481,-0.0529 0.08481,-0.15379 0,-0.0447 -0.02144,-0.0777 -0.02143,-0.0339 -0.05964,-0.0554 -0.04007,-0.0215 -0.08574,-0.0298 -0.04566,-0.008 -0.103447,-0.008 -0.08854,0 -0.188255,0.0281 -0.09972,0.0281 -0.188255,0.0794 h -0.0093 v -0.17281 q 0.06617,-0.0289 0.176139,-0.0529 0.110903,-0.0248 0.21435,-0.0248 0.101583,0 0.178935,0.0165 0.07735,0.0165 0.139794,0.0529 0.0671,0.0397 0.101583,0.0959 0.03448,0.0562 0.03448,0.13147 0,0.10252 -0.08201,0.17941 -0.08108,0.0761 -0.191983,0.0959 v 0.0116 q 0.04473,0.007 0.102515,0.0281 0.05778,0.0207 0.09786,0.0521 z m 1.324308,0.20174 q 0,0.086 -0.03541,0.16453 -0.03542,0.0785 -0.09692,0.13229 -0.0671,0.0579 -0.160296,0.0893 -0.09226,0.0306 -0.21435,0.0306 -0.113698,0 -0.219009,-0.0215 -0.105311,-0.0207 -0.178004,-0.0504 v -0.17446 h 0.01305 q 0.07642,0.043 0.178935,0.0736 0.102515,0.0298 0.201302,0.0298 0.06617,0 0.127678,-0.0165 0.06244,-0.0165 0.110903,-0.0579 0.04101,-0.0356 0.06151,-0.0852 0.02143,-0.0496 0.02143,-0.11493 0,-0.0637 -0.02516,-0.10748 -0.02423,-0.0438 -0.06803,-0.0703 -0.04846,-0.0314 -0.118358,-0.0438 -0.06897,-0.0132 -0.154704,-0.0132 -0.08201,0 -0.158433,0.01 -0.07549,0.01 -0.130474,0.0198 v -0.63416 h 0.835032 v 0.14469 h -0.655164 v 0.32742 q 0.04007,-0.003 0.08201,-0.005 0.04194,-0.002 0.07269,-0.002 0.112767,0 0.197575,0.0174 0.08481,0.0165 0.155636,0.0595 0.07456,0.0455 0.115563,0.11741 0.04101,0.0719 0.04101,0.18024 z"
       id="text172"
       style="font-size:1.6933px;opacity:0;stroke-opacity:0"
       aria-label="LM235" />
    <g
       class="stroked-text"
       id="g216">
      
      <path
         d="M 81.0173,104.2219 H 80.4125"
         id="path173" />
      <path
         d="m 80.4125,104.2219 v -1.27"
         id="path174" />
      <path
         d="m 81.4406,104.2219 v -1.27"
         id="path175" />
      <path
         d="m 81.4406,102.9519 0.4234,0.9072"
         id="path176" />
      <path
         d="m 81.864,103.8591 0.4233,-0.9072"
         id="path177" />
      <path
         d="m 82.2873,102.9519 v 1.27"
         id="path178" />
      <path
         d="m 82.8316,103.0729 0.0604,-0.0605"
         id="path179" />
      <path
         d="m 82.892,103.0124 0.121,-0.0605"
         id="path180" />
      <path
         d="m 83.013,102.9519 h 0.3024"
         id="path181" />
      <path
         d="m 83.3154,102.9519 0.1209,0.0605"
         id="path182" />
      <path
         d="m 83.4363,103.0124 0.0605,0.0605"
         id="path183" />
      <path
         d="m 83.4968,103.0729 0.0605,0.1209"
         id="path184" />
      <path
         d="m 83.5573,103.1938 v 0.121"
         id="path185" />
      <path
         d="m 83.5573,103.3148 -0.0605,0.1814"
         id="path186" />
      <path
         d="m 83.4968,103.4962 -0.7257,0.7257"
         id="path187" />
      <path
         d="m 82.7711,104.2219 h 0.7862"
         id="path188" />
      <path
         d="m 83.9806,102.9519 h 0.7862"
         id="path189" />
      <path
         d="m 84.7668,102.9519 -0.4234,0.4838"
         id="path190" />
      <path
         d="m 84.3434,103.4357 h 0.1815"
         id="path191" />
      <path
         d="m 84.5249,103.4357 0.1209,0.0605"
         id="path192" />
      <path
         d="m 84.6458,103.4962 0.0605,0.0605"
         id="path193" />
      <path
         d="m 84.7063,103.5567 0.0605,0.1209"
         id="path194" />
      <path
         d="M 84.7668,103.6776 V 103.98"
         id="path195" />
      <path
         d="m 84.7668,103.98 -0.0605,0.121"
         id="path196" />
      <path
         d="m 84.7063,104.101 -0.0605,0.0605"
         id="path197" />
      <path
         d="m 84.6458,104.1615 -0.1209,0.0604"
         id="path198" />
      <path
         d="M 84.5249,104.2219 H 84.162"
         id="path199" />
      <path
         d="m 84.162,104.2219 -0.1209,-0.0604"
         id="path200" />
      <path
         d="M 84.0411,104.1615 83.9806,104.101"
         id="path201" />
      <path
         d="M 85.9158,102.9519 H 85.311"
         id="path202" />
      <path
         d="m 85.311,102.9519 -0.0604,0.6048"
         id="path203" />
      <path
         d="m 85.2506,103.5567 0.0604,-0.0605"
         id="path204" />
      <path
         d="m 85.311,103.4962 0.121,-0.0605"
         id="path205" />
      <path
         d="m 85.432,103.4357 h 0.3024"
         id="path206" />
      <path
         d="m 85.7344,103.4357 0.1209,0.0605"
         id="path207" />
      <path
         d="m 85.8553,103.4962 0.0605,0.0605"
         id="path208" />
      <path
         d="m 85.9158,103.5567 0.0605,0.1209"
         id="path209" />
      <path
         d="M 85.9763,103.6776 V 103.98"
         id="path210" />
      <path
         d="m 85.9763,103.98 -0.0605,0.121"
         id="path211" />
      <path
         d="m 85.9158,104.101 -0.0605,0.0605"
         id="path212" />
      <path
         d="m 85.8553,104.1615 -0.1209,0.0604"
         id="path213" />
      <path
         d="M 85.7344,104.2219 H 85.432"
         id="path214" />
      <path
         d="m 85.432,104.2219 -0.121,-0.0604"
         id="path215" />
      <path
         d="M 85.311,104.1615 85.2506,104.101"
         id="path216" />
    </g>
    <path
       d="m 81.074295,106.43 h -0.877902 v -1.23111 h 0.184527 v 1.08559 h 0.693375 z m 1.4203,0 h -0.184527 v -1.06079 l -0.38583,0.7218 h -0.109971 l -0.383033,-0.7218 V 106.43 h -0.172412 v -1.23111 h 0.251628 l 0.369986,0.68542 0.357871,-0.68542 h 0.256288 z m 1.15376,-0.59282 q 0.04473,0.0356 0.07363,0.0893 0.02889,0.0537 0.02889,0.1389 0,0.0843 -0.03448,0.15461 -0.03448,0.0703 -0.09692,0.12237 -0.0699,0.0579 -0.164957,0.086 -0.09413,0.0273 -0.206894,0.0273 -0.115562,0 -0.227397,-0.0248 -0.111834,-0.024 -0.183595,-0.0529 v -0.1728 h 0.01398 q 0.07922,0.0463 0.186391,0.0769 0.107174,0.0306 0.206894,0.0306 0.05871,0 0.124882,-0.0174 0.06617,-0.0174 0.107174,-0.0513 0.04287,-0.0364 0.06337,-0.0802 0.02143,-0.0438 0.02143,-0.11079 0,-0.0662 -0.02423,-0.10914 -0.0233,-0.0438 -0.06524,-0.0686 -0.04194,-0.0256 -0.101583,-0.0347 -0.05965,-0.01 -0.12861,-0.01 h -0.08388 v -0.13725 h 0.06524 q 0.141657,0 0.225533,-0.0521 0.08481,-0.0529 0.08481,-0.15379 0,-0.0447 -0.02143,-0.0777 -0.02143,-0.0339 -0.05965,-0.0554 -0.04007,-0.0215 -0.08574,-0.0298 -0.04567,-0.008 -0.103447,-0.008 -0.08854,0 -0.188255,0.0281 -0.09972,0.0281 -0.188255,0.0794 h -0.0093 v -0.17281 q 0.06617,-0.0289 0.17614,-0.0529 0.110902,-0.0248 0.214349,-0.0248 0.101584,0 0.178936,0.0165 0.07735,0.0165 0.139793,0.0529 0.0671,0.0397 0.101583,0.0959 0.03448,0.0562 0.03448,0.13146 0,0.10252 -0.08201,0.17941 -0.08108,0.0761 -0.191983,0.0959 v 0.0116 q 0.04473,0.007 0.102515,0.0281 0.05778,0.0207 0.09785,0.0521 z m 1.213406,0 q 0.04473,0.0356 0.07362,0.0893 0.02889,0.0537 0.02889,0.1389 0,0.0843 -0.03448,0.15461 -0.03448,0.0703 -0.09692,0.12237 -0.0699,0.0579 -0.164956,0.086 -0.09413,0.0273 -0.206894,0.0273 -0.115562,0 -0.227397,-0.0248 -0.111835,-0.024 -0.183595,-0.0529 v -0.1728 h 0.01398 q 0.07922,0.0463 0.186391,0.0769 0.107175,0.0306 0.206894,0.0306 0.05871,0 0.124882,-0.0174 0.06617,-0.0174 0.107175,-0.0513 0.04287,-0.0364 0.06337,-0.0802 0.02143,-0.0438 0.02143,-0.11079 0,-0.0662 -0.02423,-0.10914 -0.0233,-0.0438 -0.06524,-0.0686 -0.04194,-0.0256 -0.101583,-0.0347 -0.05965,-0.01 -0.12861,-0.01 h -0.08388 v -0.13725 h 0.06524 q 0.141657,0 0.225533,-0.0521 0.08481,-0.0529 0.08481,-0.15379 0,-0.0447 -0.02144,-0.0777 -0.02143,-0.0339 -0.05964,-0.0554 -0.04007,-0.0215 -0.08574,-0.0298 -0.04566,-0.008 -0.103447,-0.008 -0.08854,0 -0.188255,0.0281 -0.09972,0.0281 -0.188255,0.0794 h -0.0093 v -0.17281 q 0.06617,-0.0289 0.176139,-0.0529 0.110903,-0.0248 0.21435,-0.0248 0.101583,0 0.178935,0.0165 0.07735,0.0165 0.139794,0.0529 0.0671,0.0397 0.101583,0.0959 0.03448,0.0562 0.03448,0.13146 0,0.10252 -0.08201,0.17941 -0.08108,0.0761 -0.191983,0.0959 v 0.0116 q 0.04473,0.007 0.102515,0.0281 0.05778,0.0207 0.09786,0.0521 z m 1.324308,0.20174 q 0,0.086 -0.03541,0.16454 -0.03542,0.0785 -0.09692,0.13228 -0.0671,0.0579 -0.160296,0.0893 -0.09226,0.0306 -0.21435,0.0306 -0.113698,0 -0.219009,-0.0215 -0.105311,-0.0207 -0.178004,-0.0504 v -0.17446 h 0.01305 q 0.07642,0.043 0.178935,0.0736 0.102515,0.0298 0.201302,0.0298 0.06617,0 0.127678,-0.0165 0.06244,-0.0165 0.110903,-0.0579 0.04101,-0.0356 0.06151,-0.0852 0.02143,-0.0496 0.02143,-0.11493 0,-0.0637 -0.02516,-0.10748 -0.02423,-0.0438 -0.06803,-0.0703 -0.04846,-0.0314 -0.118358,-0.0438 -0.06897,-0.0132 -0.154704,-0.0132 -0.08201,0 -0.158433,0.01 -0.07549,0.01 -0.130474,0.0199 v -0.63416 h 0.835032 v 0.14469 h -0.655164 v 0.32741 q 0.04007,-0.003 0.08201,-0.005 0.04194,-0.002 0.07269,-0.002 0.112767,0 0.197575,0.0174 0.08481,0.0165 0.155636,0.0595 0.07456,0.0455 0.115563,0.11741 0.04101,0.0719 0.04101,0.18024 z"
       id="text216"
       style="font-size:1.6933px;opacity:0;stroke-opacity:0"
       aria-label="LM335" />
    <g
       class="stroked-text"
       id="g263">
      
      <path
         d="M 81.0173,106.2665 H 80.4125"
         id="path217" />
      <path
         d="m 80.4125,106.2665 v -1.27"
         id="path218" />
      <path
         d="m 81.4406,106.2665 v -1.27"
         id="path219" />
      <path
         d="m 81.4406,104.9965 0.4234,0.9072"
         id="path220" />
      <path
         d="m 81.864,105.9037 0.4233,-0.9072"
         id="path221" />
      <path
         d="m 82.2873,104.9965 v 1.27"
         id="path222" />
      <path
         d="m 82.7711,104.9965 h 0.7862"
         id="path223" />
      <path
         d="m 83.5573,104.9965 -0.4234,0.4838"
         id="path224" />
      <path
         d="m 83.1339,105.4803 h 0.1815"
         id="path225" />
      <path
         d="m 83.3154,105.4803 0.1209,0.0605"
         id="path226" />
      <path
         d="m 83.4363,105.5408 0.0605,0.0605"
         id="path227" />
      <path
         d="m 83.4968,105.6013 0.0605,0.1209"
         id="path228" />
      <path
         d="m 83.5573,105.7222 v 0.3024"
         id="path229" />
      <path
         d="m 83.5573,106.0246 -0.0605,0.121"
         id="path230" />
      <path
         d="m 83.4968,106.1456 -0.0605,0.0605"
         id="path231" />
      <path
         d="m 83.4363,106.2061 -0.1209,0.0604"
         id="path232" />
      <path
         d="M 83.3154,106.2665 H 82.9525"
         id="path233" />
      <path
         d="m 82.9525,106.2665 -0.1209,-0.0604"
         id="path234" />
      <path
         d="m 82.8316,106.2061 -0.0605,-0.0605"
         id="path235" />
      <path
         d="m 83.9806,104.9965 h 0.7862"
         id="path236" />
      <path
         d="m 84.7668,104.9965 -0.4234,0.4838"
         id="path237" />
      <path
         d="m 84.3434,105.4803 h 0.1815"
         id="path238" />
      <path
         d="m 84.5249,105.4803 0.1209,0.0605"
         id="path239" />
      <path
         d="m 84.6458,105.5408 0.0605,0.0605"
         id="path240" />
      <path
         d="m 84.7063,105.6013 0.0605,0.1209"
         id="path241" />
      <path
         d="m 84.7668,105.7222 v 0.3024"
         id="path242" />
      <path
         d="m 84.7668,106.0246 -0.0605,0.121"
         id="path243" />
      <path
         d="m 84.7063,106.1456 -0.0605,0.0605"
         id="path244" />
      <path
         d="m 84.6458,106.2061 -0.1209,0.0604"
         id="path245" />
      <path
         d="M 84.5249,106.2665 H 84.162"
         id="path246" />
      <path
         d="m 84.162,106.2665 -0.1209,-0.0604"
         id="path247" />
      <path
         d="m 84.0411,106.2061 -0.0605,-0.0605"
         id="path248" />
      <path
         d="M 85.9158,104.9965 H 85.311"
         id="path249" />
      <path
         d="m 85.311,104.9965 -0.0604,0.6048"
         id="path250" />
      <path
         d="m 85.2506,105.6013 0.0604,-0.0605"
         id="path251" />
      <path
         d="m 85.311,105.5408 0.121,-0.0605"
         id="path252" />
      <path
         d="m 85.432,105.4803 h 0.3024"
         id="path253" />
      <path
         d="m 85.7344,105.4803 0.1209,0.0605"
         id="path254" />
      <path
         d="m 85.8553,105.5408 0.0605,0.0605"
         id="path255" />
      <path
         d="m 85.9158,105.6013 0.0605,0.1209"
         id="path256" />
      <path
         d="m 85.9763,105.7222 v 0.3024"
         id="path257" />
      <path
         d="m 85.9763,106.0246 -0.0605,0.121"
         id="path258" />
      <path
         d="m 85.9158,106.1456 -0.0605,0.0605"
         id="path259" />
      <path
         d="m 85.8553,106.2061 -0.1209,0.0604"
         id="path260" />
      <path
         d="M 85.7344,106.2665 H 85.432"
         id="path261" />
      <path
         d="m 85.432,106.2665 -0.121,-0.0604"
         id="path262" />
      <path
         d="m 85.311,106.2061 -0.0604,-0.0605"
         id="path263" />
    </g>
  </g>
  <g
     style="fill:none;stroke:#006464;stroke-width:0.1524;stroke-linecap:round;stroke-linejoin:round;stroke-opacity:1"
     id="g303"
     transform="translate(-75.583666,-79.9291)">
    <path
       d="m 81.083894,102.235 h -0.877902 v -1.23111 h 0.184527 v 1.08559 h 0.693375 z m 1.4203,0 h -0.184527 v -1.06079 l -0.38583,0.7218 h -0.10997 l -0.383034,-0.7218 v 1.06079 h -0.172412 v -1.23111 h 0.251628 l 0.369986,0.68542 0.357871,-0.68542 h 0.256288 z m 1.19663,0 h -0.751156 v -0.12567 h 0.288906 v -0.82516 h -0.288906 v -0.11244 q 0.05871,0 0.125814,-0.008 0.0671,-0.009 0.101583,-0.0256 0.04287,-0.0207 0.0671,-0.0521 0.02516,-0.0323 0.02889,-0.086 h 0.144453 v 1.10958 h 0.283314 z m 1.170536,-0.59282 q 0.04473,0.0356 0.07362,0.0893 0.02889,0.0537 0.02889,0.1389 0,0.0843 -0.03448,0.15461 -0.03448,0.0703 -0.09692,0.12237 -0.0699,0.0579 -0.164956,0.086 -0.09413,0.0273 -0.206894,0.0273 -0.115562,0 -0.227397,-0.0248 -0.111835,-0.024 -0.183595,-0.0529 v -0.1728 h 0.01398 q 0.07922,0.0463 0.186391,0.0769 0.107175,0.0306 0.206894,0.0306 0.05871,0 0.124882,-0.0174 0.06617,-0.0174 0.107175,-0.0513 0.04287,-0.0364 0.06337,-0.0802 0.02143,-0.0438 0.02143,-0.11079 0,-0.0661 -0.02423,-0.10914 -0.0233,-0.0438 -0.06524,-0.0686 -0.04194,-0.0256 -0.101583,-0.0347 -0.05964,-0.01 -0.12861,-0.01 h -0.08388 v -0.13725 h 0.06524 q 0.141658,0 0.225534,-0.0521 0.08481,-0.0529 0.08481,-0.15379 0,-0.0447 -0.02143,-0.0777 -0.02143,-0.0339 -0.05965,-0.0554 -0.04007,-0.0215 -0.08574,-0.0298 -0.04566,-0.008 -0.103447,-0.008 -0.08853,0 -0.188254,0.0281 -0.09972,0.0281 -0.188255,0.0794 h -0.0093 v -0.17281 q 0.06617,-0.0289 0.17614,-0.0529 0.110902,-0.0248 0.214349,-0.0248 0.101583,0 0.178936,0.0165 0.07735,0.0165 0.139793,0.0529 0.0671,0.0397 0.101583,0.0959 0.03448,0.0562 0.03448,0.13146 0,0.10252 -0.08201,0.17942 -0.08108,0.0761 -0.191982,0.0959 v 0.0116 q 0.04473,0.007 0.102515,0.0281 0.05778,0.0207 0.09785,0.0521 z m 1.324308,0.20174 q 0,0.086 -0.03541,0.16454 -0.03542,0.0785 -0.09692,0.13228 -0.0671,0.0579 -0.160296,0.0893 -0.09226,0.0306 -0.21435,0.0306 -0.113698,0 -0.219009,-0.0215 -0.105311,-0.0207 -0.178004,-0.0504 v -0.17446 h 0.01305 q 0.07642,0.043 0.178935,0.0736 0.102515,0.0298 0.201302,0.0298 0.06617,0 0.127678,-0.0165 0.06244,-0.0165 0.110903,-0.0579 0.04101,-0.0356 0.06151,-0.0852 0.02143,-0.0496 0.02143,-0.11493 0,-0.0637 -0.02516,-0.10748 -0.02423,-0.0438 -0.06803,-0.0703 -0.04846,-0.0314 -0.118359,-0.0438 -0.06896,-0.0132 -0.154704,-0.0132 -0.08201,0 -0.158433,0.01 -0.07549,0.01 -0.130473,0.0199 v -0.63416 h 0.835031 v 0.14469 h -0.655164 v 0.32741 q 0.04007,-0.003 0.08201,-0.005 0.04194,-0.002 0.07269,-0.002 0.112767,0 0.197575,0.0174 0.08481,0.0165 0.155636,0.0595 0.07456,0.0455 0.115563,0.11741 0.04101,0.0719 0.04101,0.18024 z"
       id="text264"
       style="font-size:1.6933px;text-anchor:middle;opacity:0;stroke-opacity:0"
       aria-label="LM135" />
    <g
       class="stroked-text"
       id="g302">
      
      <path
         d="M 81.0283,102.1795 H 80.4235"
         id="path264" />
      <path
         d="m 80.4235,102.1795 v -1.27"
         id="path265" />
      <path
         d="m 81.4516,102.1795 v -1.27"
         id="path266" />
      <path
         d="m 81.4516,100.9095 0.4234,0.9072"
         id="path267" />
      <path
         d="m 81.875,101.8167 0.4233,-0.9072"
         id="path268" />
      <path
         d="m 82.2983,100.9095 v 1.27"
         id="path269" />
      <path
         d="M 83.5683,102.1795 H 82.8426"
         id="path270" />
      <path
         d="m 83.2054,102.1795 v -1.27"
         id="path271" />
      <path
         d="m 83.2054,100.9095 -0.1209,0.1815"
         id="path272" />
      <path
         d="m 83.0845,101.091 -0.121,0.1209"
         id="path273" />
      <path
         d="m 82.9635,101.2119 -0.1209,0.0605"
         id="path274" />
      <path
         d="m 83.9916,100.9095 h 0.7862"
         id="path275" />
      <path
         d="m 84.7778,100.9095 -0.4234,0.4838"
         id="path276" />
      <path
         d="m 84.3544,101.3933 h 0.1815"
         id="path277" />
      <path
         d="m 84.5359,101.3933 0.1209,0.0605"
         id="path278" />
      <path
         d="m 84.6568,101.4538 0.0605,0.0605"
         id="path279" />
      <path
         d="m 84.7173,101.5143 0.0605,0.1209"
         id="path280" />
      <path
         d="m 84.7778,101.6352 v 0.3024"
         id="path281" />
      <path
         d="m 84.7778,101.9376 -0.0605,0.121"
         id="path282" />
      <path
         d="m 84.7173,102.0586 -0.0605,0.0605"
         id="path283" />
      <path
         d="m 84.6568,102.1191 -0.1209,0.0604"
         id="path284" />
      <path
         d="M 84.5359,102.1795 H 84.173"
         id="path285" />
      <path
         d="m 84.173,102.1795 -0.1209,-0.0604"
         id="path286" />
      <path
         d="m 84.0521,102.1191 -0.0605,-0.0605"
         id="path287" />
      <path
         d="M 85.9268,100.9095 H 85.322"
         id="path288" />
      <path
         d="m 85.322,100.9095 -0.0604,0.6048"
         id="path289" />
      <path
         d="m 85.2616,101.5143 0.0604,-0.0605"
         id="path290" />
      <path
         d="m 85.322,101.4538 0.121,-0.0605"
         id="path291" />
      <path
         d="m 85.443,101.3933 h 0.3024"
         id="path292" />
      <path
         d="m 85.7454,101.3933 0.1209,0.0605"
         id="path293" />
      <path
         d="m 85.8663,101.4538 0.0605,0.0605"
         id="path294" />
      <path
         d="m 85.9268,101.5143 0.0605,0.1209"
         id="path295" />
      <path
         d="m 85.9873,101.6352 v 0.3024"
         id="path296" />
      <path
         d="m 85.9873,101.9376 -0.0605,0.121"
         id="path297" />
      <path
         d="m 85.9268,102.0586 -0.0605,0.0605"
         id="path298" />
      <path
         d="m 85.8663,102.1191 -0.1209,0.0604"
         id="path299" />
      <path
         d="M 85.7454,102.1795 H 85.443"
         id="path300" />
      <path
         d="m 85.443,102.1795 -0.121,-0.0604"
         id="path301" />
      <path
         d="m 85.322,102.1191 -0.0604,-0.0605"
         id="path302" />
    </g>
  </g>
  <g
     style="fill:none;stroke:#840000;stroke-width:0.1524;stroke-linecap:round;stroke-linejoin:round;stroke-opacity:1"
     id="g304"
     transform="translate(-75.583666,-79.9291)">
    <path
       d="M 77.47,100.33 V 97.79"
       id="path303" />
    <path
       d="m 77.47,102.87 v 2.54"
       id="path304" />
  </g>
  <g
     style="fill:none;stroke:#006464;stroke-width:0.1524;stroke-linecap:round;stroke-linejoin:round;stroke-opacity:1"
     id="g352"
     transform="translate(-75.583666,-79.9291)">
    <path
       d="m 76.810528,110.34825 q -0.105788,0.0463 -0.231519,0.081 -0.124865,0.0339 -0.241925,0.0339 -0.150878,0 -0.276609,-0.0397 -0.125732,-0.0397 -0.214177,-0.11906 -0.08931,-0.0802 -0.137872,-0.20009 -0.04856,-0.12071 -0.04856,-0.28194 0,-0.29517 0.18036,-0.46549 0.181227,-0.17115 0.496856,-0.17115 0.110123,0 0.224582,0.0256 0.115326,0.0248 0.247995,0.0852 v 0.1943 h -0.01561 q -0.02688,-0.0198 -0.07804,-0.0521 -0.05116,-0.0323 -0.100586,-0.0538 -0.05983,-0.0256 -0.136136,-0.0422 -0.07544,-0.0174 -0.171689,-0.0174 -0.216778,0 -0.343377,0.13312 -0.125731,0.13229 -0.125731,0.35883 0,0.23895 0.131801,0.37207 0.131801,0.13228 0.358985,0.13228 0.08324,0 0.165619,-0.0157 0.08324,-0.0157 0.145675,-0.0405 v -0.30178 h -0.345979 v -0.14387 h 0.515933 z m 1.285063,0.091 h -0.212443 l -0.612183,-1.10131 v 1.10131 h -0.160416 v -1.23111 h 0.266204 l 0.558422,1.00539 v -1.00539 h 0.160416 z m 1.434206,-0.61432 q 0,0.16785 -0.07717,0.30427 -0.07631,0.13642 -0.203771,0.21166 -0.08845,0.0521 -0.197702,0.0752 -0.108389,0.0232 -0.286148,0.0232 h -0.326034 v -1.23111 h 0.322566 q 0.189031,0 0.300021,0.0264 0.111858,0.0256 0.189031,0.0711 0.131801,0.0786 0.205506,0.20918 0.07371,0.13064 0.07371,0.31005 z m -0.179493,-0.002 q 0,-0.14469 -0.05289,-0.2439 -0.05289,-0.0992 -0.157815,-0.15627 -0.07631,-0.0413 -0.16215,-0.0571 -0.08584,-0.0165 -0.205506,-0.0165 H 78.61066 v 0.95 h 0.161283 q 0.123997,0 0.215912,-0.0174 0.09278,-0.0174 0.169954,-0.0645 0.09625,-0.0587 0.143941,-0.15461 0.04856,-0.0959 0.04856,-0.23978 z"
       id="text304"
       style="font-size:1.6933px;text-anchor:middle;opacity:0;stroke-opacity:0"
       aria-label="GND" />
    <g
       class="stroked-text"
       id="g335">
      
      <path
         d="m 76.6294,109.1742 -0.121,-0.0605"
         id="path305" />
      <path
         d="M 76.5084,109.1137 H 76.327"
         id="path306" />
      <path
         d="m 76.327,109.1137 -0.1814,0.0605"
         id="path307" />
      <path
         d="m 76.1456,109.1742 -0.121,0.121"
         id="path308" />
      <path
         d="m 76.0246,109.2952 -0.0605,0.1209"
         id="path309" />
      <path
         d="m 75.9641,109.4161 -0.0604,0.2419"
         id="path310" />
      <path
         d="m 75.9037,109.658 v 0.1814"
         id="path311" />
      <path
         d="m 75.9037,109.8394 0.0604,0.2419"
         id="path312" />
      <path
         d="m 75.9641,110.0813 0.0605,0.121"
         id="path313" />
      <path
         d="m 76.0246,110.2023 0.121,0.121"
         id="path314" />
      <path
         d="m 76.1456,110.3233 0.1814,0.0604"
         id="path315" />
      <path
         d="m 76.327,110.3837 h 0.1209"
         id="path316" />
      <path
         d="m 76.4479,110.3837 0.1815,-0.0604"
         id="path317" />
      <path
         d="m 76.6294,110.3233 0.0604,-0.0605"
         id="path318" />
      <path
         d="m 76.6898,110.2628 v -0.4234"
         id="path319" />
      <path
         d="M 76.6898,109.8394 H 76.4479"
         id="path320" />
      <path
         d="m 77.2341,110.3837 v -1.27"
         id="path321" />
      <path
         d="m 77.2341,109.1137 0.7257,1.27"
         id="path322" />
      <path
         d="m 77.9598,110.3837 v -1.27"
         id="path323" />
      <path
         d="m 78.5646,110.3837 v -1.27"
         id="path324" />
      <path
         d="M 78.5646,109.1137 H 78.867"
         id="path325" />
      <path
         d="m 78.867,109.1137 0.1814,0.0605"
         id="path326" />
      <path
         d="m 79.0484,109.1742 0.121,0.121"
         id="path327" />
      <path
         d="m 79.1694,109.2952 0.0605,0.1209"
         id="path328" />
      <path
         d="m 79.2299,109.4161 0.0604,0.2419"
         id="path329" />
      <path
         d="m 79.2903,109.658 v 0.1814"
         id="path330" />
      <path
         d="m 79.2903,109.8394 -0.0604,0.2419"
         id="path331" />
      <path
         d="m 79.2299,110.0813 -0.0605,0.121"
         id="path332" />
      <path
         d="m 79.1694,110.2023 -0.121,0.121"
         id="path333" />
      <path
         d="m 79.0484,110.3233 -0.1814,0.0604"
         id="path334" />
      <path
         d="M 78.867,110.3837 H 78.5646"
         id="path335" />
    </g>
    <path
       d="m 80.666804,89.535004 h -0.252918 l -0.49009,-0.48947 h -0.274568 v 0.48947 h -0.194855 v -1.231116 h 0.410376 q 0.132856,0 0.221426,0.01488 0.08857,0.01406 0.159427,0.05126 0.07971,0.04217 0.123999,0.106658 0.04527,0.06366 0.04527,0.162054 0,0.133116 -0.07971,0.223238 -0.07971,0.0893 -0.219458,0.13477 z m -0.455646,-0.884683 q 0,-0.05292 -0.02263,-0.09343 -0.02165,-0.04134 -0.07282,-0.06945 -0.04232,-0.02398 -0.10038,-0.03307 -0.05806,-0.0099 -0.136792,-0.0099 h -0.229299 v 0.464665 h 0.196823 q 0.09251,0 0.161395,-0.01323 0.06889,-0.01406 0.11711,-0.05126 0.04429,-0.03473 0.06495,-0.07937 0.02165,-0.04547 0.02165,-0.114926 z m 1.514555,0.884683 h -0.793198 v -0.125675 h 0.305076 V 88.584176 H 80.932515 V 88.47173 q 0.062,0 0.132856,-0.0083 0.07086,-0.0091 0.107268,-0.02563 0.04527,-0.02067 0.07086,-0.05209 0.02657,-0.03224 0.03051,-0.08599 h 0.152538 v 1.109575 h 0.299172 z"
       id="text335"
       style="font-size:1.6933px;text-anchor:middle;opacity:0;stroke-opacity:0"
       aria-label="R1" />
    <g
       class="stroked-text"
       id="g351">
      
      <path
         d="M 80.3872,89.4795 79.9639,88.8748"
         id="path336" />
      <path
         d="m 79.6615,89.4795 v -1.27"
         id="path337" />
      <path
         d="m 79.6615,88.2095 h 0.4838"
         id="path338" />
      <path
         d="m 80.1453,88.2095 0.121,0.0605"
         id="path339" />
      <path
         d="m 80.2663,88.27 0.0605,0.0605"
         id="path340" />
      <path
         d="m 80.3268,88.3305 0.0604,0.1209"
         id="path341" />
      <path
         d="m 80.3872,88.4514 v 0.1815"
         id="path342" />
      <path
         d="m 80.3872,88.6329 -0.0604,0.1209"
         id="path343" />
      <path
         d="m 80.3268,88.7538 -0.0605,0.0605"
         id="path344" />
      <path
         d="m 80.2663,88.8143 -0.121,0.0605"
         id="path345" />
      <path
         d="M 80.1453,88.8748 H 79.6615"
         id="path346" />
      <path
         d="M 81.5968,89.4795 H 80.8711"
         id="path347" />
      <path
         d="m 81.2339,89.4795 v -1.27"
         id="path348" />
      <path
         d="M 81.2339,88.2095 81.113,88.391"
         id="path349" />
      <path
         d="m 81.113,88.391 -0.121,0.1209"
         id="path350" />
      <path
         d="m 80.992,88.5119 -0.1209,0.0605"
         id="path351" />
    </g>
  </g>
  <g
     style="fill:none;stroke:#840000;stroke-width:0.1524;stroke-linecap:round;stroke-linejoin:round;stroke-opacity:1"
     id="g353"
     transform="translate(-75.583666,-79.9291)">
    <path
       d="M 77.47,86.36 V 85.09"
       id="path352" />
    <path
       d="m 77.47,91.44 v 1.27"
       id="path353" />
  </g>
  <g
     style="fill:none;stroke:#006464;stroke-width:0.1524;stroke-linecap:round;stroke-linejoin:round;stroke-opacity:1"
     id="g386"
     transform="translate(-75.583666,-79.9291)">
    <path
       d="m 77.170988,80.099688 -0.48752,1.231115 h -0.237463 l -0.487521,-1.231115 h 0.190691 l 0.420059,1.083117 0.420059,-1.083117 z m 1.23769,1.14182 q -0.04947,0.01984 -0.08995,0.03721 -0.03958,0.01736 -0.10434,0.03638 -0.05487,0.01571 -0.119631,0.02646 -0.06386,0.01158 -0.141219,0.01158 -0.145716,0 -0.265348,-0.03721 -0.118731,-0.03803 -0.206881,-0.118233 -0.08635,-0.07855 -0.134922,-0.19926 -0.04857,-0.121541 -0.04857,-0.281941 0,-0.152133 0.04677,-0.27202 0.04677,-0.119887 0.134922,-0.202567 0.08545,-0.0802 0.205982,-0.122368 0.12143,-0.04217 0.268946,-0.04217 0.107938,0 0.214976,0.02398 0.107938,0.02398 0.239263,0.08433 v 0.194299 h -0.01349 q -0.110636,-0.08516 -0.219474,-0.124021 -0.108837,-0.03886 -0.232966,-0.03886 -0.101641,0 -0.183494,0.03059 -0.08095,0.02976 -0.144817,0.09343 -0.06207,0.06201 -0.09714,0.157094 -0.03418,0.09426 -0.03418,0.218277 0,0.129808 0.03778,0.223237 0.03868,0.09343 0.09894,0.152133 0.06296,0.06118 0.146615,0.09095 0.08455,0.02894 0.178098,0.02894 0.128626,0 0.241062,-0.04051 0.112435,-0.04051 0.210479,-0.12154 h 0.01259 z m 1.286261,0 q -0.04947,0.01984 -0.08995,0.03721 -0.03958,0.01736 -0.10434,0.03638 -0.05487,0.01571 -0.119632,0.02646 -0.06386,0.01158 -0.141219,0.01158 -0.145716,0 -0.265347,-0.03721 -0.118732,-0.03803 -0.206881,-0.118233 -0.08635,-0.07855 -0.134923,-0.19926 -0.04857,-0.121541 -0.04857,-0.281941 0,-0.152133 0.04677,-0.27202 0.04677,-0.119887 0.134923,-0.202567 0.08545,-0.0802 0.205981,-0.122368 0.121431,-0.04217 0.268946,-0.04217 0.107938,0 0.214977,0.02398 0.107938,0.02398 0.239262,0.08433 v 0.194299 h -0.01349 q -0.110637,-0.08516 -0.219474,-0.124021 -0.108838,-0.03886 -0.232966,-0.03886 -0.101642,0 -0.183495,0.03059 -0.08095,0.02976 -0.144817,0.09343 -0.06206,0.06201 -0.09714,0.157094 -0.03418,0.09426 -0.03418,0.218277 0,0.129808 0.03778,0.223237 0.03868,0.09343 0.09894,0.152133 0.06296,0.06118 0.146616,0.09095 0.08455,0.02894 0.178098,0.02894 0.128626,0 0.241061,-0.04051 0.112436,-0.04051 0.210479,-0.12154 h 0.01259 z"
       id="text353"
       style="font-size:1.6933px;text-anchor:middle;opacity:0;stroke-opacity:0"
       aria-label="VCC" />
    <g
       class="stroked-text"
       id="g385">
      
      <path
         d="m 76.1576,80.0053 0.4233,1.27"
         id="path354" />
      <path
         d="m 76.5809,81.2753 0.4234,-1.27"
         id="path355" />
      <path
         d="m 78.1533,81.1544 -0.0604,0.0605"
         id="path356" />
      <path
         d="m 78.0929,81.2149 -0.1815,0.0604"
         id="path357" />
      <path
         d="M 77.9114,81.2753 H 77.7905"
         id="path358" />
      <path
         d="M 77.7905,81.2753 77.6091,81.2149"
         id="path359" />
      <path
         d="m 77.6091,81.2149 -0.121,-0.121"
         id="path360" />
      <path
         d="m 77.4881,81.0939 -0.0605,-0.121"
         id="path361" />
      <path
         d="M 77.4276,80.9729 77.3672,80.731"
         id="path362" />
      <path
         d="M 77.3672,80.731 V 80.5496"
         id="path363" />
      <path
         d="m 77.3672,80.5496 0.0604,-0.2419"
         id="path364" />
      <path
         d="m 77.4276,80.3077 0.0605,-0.1209"
         id="path365" />
      <path
         d="m 77.4881,80.1868 0.121,-0.121"
         id="path366" />
      <path
         d="m 77.6091,80.0658 0.1814,-0.0605"
         id="path367" />
      <path
         d="m 77.7905,80.0053 h 0.1209"
         id="path368" />
      <path
         d="m 77.9114,80.0053 0.1815,0.0605"
         id="path369" />
      <path
         d="m 78.0929,80.0658 0.0604,0.0605"
         id="path370" />
      <path
         d="m 79.4233,81.1544 -0.0604,0.0605"
         id="path371" />
      <path
         d="m 79.3629,81.2149 -0.1815,0.0604"
         id="path372" />
      <path
         d="M 79.1814,81.2753 H 79.0605"
         id="path373" />
      <path
         d="M 79.0605,81.2753 78.8791,81.2149"
         id="path374" />
      <path
         d="m 78.8791,81.2149 -0.121,-0.121"
         id="path375" />
      <path
         d="m 78.7581,81.0939 -0.0605,-0.121"
         id="path376" />
      <path
         d="M 78.6976,80.9729 78.6372,80.731"
         id="path377" />
      <path
         d="M 78.6372,80.731 V 80.5496"
         id="path378" />
      <path
         d="m 78.6372,80.5496 0.0604,-0.2419"
         id="path379" />
      <path
         d="m 78.6976,80.3077 0.0605,-0.1209"
         id="path380" />
      <path
         d="m 78.7581,80.1868 0.121,-0.121"
         id="path381" />
      <path
         d="m 78.8791,80.0658 0.1814,-0.0605"
         id="path382" />
      <path
         d="m 79.0605,80.0053 h 0.1209"
         id="path383" />
      <path
         d="m 79.1814,80.0053 0.1815,0.0605"
         id="path384" />
      <path
         d="m 79.3629,80.0658 0.0604,0.0605"
         id="path385" />
    </g>
  </g>
  <g
     style="fill:#009600;fill-opacity:1;stroke:#009600;stroke-width:0.1524;stroke-linecap:round;stroke-linejoin:round;stroke-opacity:1"
     id="g387"
     transform="translate(-75.583666,-79.9291)">
    <circle
       cx="77.470001"
       cy="95.25"
       r="0.45719999"
       id="circle386" />
  </g>
</svg>
